<svg width="192" height="72" viewBox="0 0 192 72" fill="none" xmlns="http://www.w3.org/2000/svg">
<path d="M10.0898 33.8804V56.051H17.6779V33.3717C17.6779 30.2347 18.992 28.6662 21.6203 28.6662C24.2062 28.6662 25.5203 30.2347 25.5203 33.3717V56.051H33.1083V33.8804C33.1083 30.0227 32.0909 27.013 30.0562 24.9358C28.0214 22.8162 25.1812 21.7988 21.4507 21.7988C17.7627 21.7988 14.9225 22.8586 12.9725 24.9358C11.0648 27.0554 10.0898 30.0227 10.0898 33.8804Z" fill="#1D1D1D"/>
<path fill-rule="evenodd" clip-rule="evenodd" d="M29.4231 71.0574V63.5117H13.7383V71.0574H29.4231Z" fill="#FF3938"/>
<path fill-rule="evenodd" clip-rule="evenodd" d="M33.7846 21.7985L27.7227 17.2627L37.0911 4.71484L43.1531 9.25071L33.7846 21.7985Z" fill="#FFBB02"/>
<path fill-rule="evenodd" clip-rule="evenodd" d="M17.8047 16.5848H25.3503V0.942383H17.8047V16.5848Z" fill="#FF3938"/>
<path fill-rule="evenodd" clip-rule="evenodd" d="M9.36848 21.7985L15.4304 17.2627L6.10435 4.71484L0 9.25071L9.36848 21.7985Z" fill="#FFBB02"/>
<path d="M76.0476 17.989H74.4306V21.5483H76.0476C76.6431 21.5483 77.1051 21.3898 77.4337 21.0727C77.7622 20.7659 77.9265 20.3261 77.9265 19.7533C77.9265 19.1908 77.7622 18.7561 77.4337 18.4493C77.1051 18.1425 76.6431 17.989 76.0476 17.989ZM73.1523 26.3962V16.9305H76.0476C77.1154 16.9305 77.9162 17.1708 78.4501 17.6515C79.0045 18.1322 79.2818 18.8328 79.2818 19.7533C79.2818 20.6943 79.0045 21.4 78.4501 21.8705C77.9162 22.3512 77.1154 22.5915 76.0476 22.5915H74.4306V26.3962H73.1523ZM84.8722 17.8049C83.9379 17.8049 83.1935 18.1527 82.6391 18.8482C82.0949 19.5334 81.8228 20.4744 81.8228 21.671C81.8228 22.8677 82.0949 23.8086 82.6391 24.4939C83.1935 25.1894 83.9379 25.5371 84.8722 25.5371C85.7962 25.5371 86.5303 25.1894 87.0744 24.4939C87.6288 23.8086 87.906 22.8677 87.906 21.671C87.906 20.4744 87.6288 19.5334 87.0744 18.8482C86.5303 18.1527 85.7962 17.8049 84.8722 17.8049ZM84.8722 16.7617C86.1966 16.7617 87.2592 17.2066 88.0601 18.0964C88.8609 18.9863 89.2613 20.1778 89.2613 21.671C89.2613 23.1643 88.8609 24.3558 88.0601 25.2456C87.2592 26.1354 86.1966 26.5803 84.8722 26.5803C83.5272 26.5803 82.4543 26.1354 81.6534 25.2456C80.8629 24.3558 80.4676 23.1643 80.4676 21.671C80.4676 20.1778 80.8629 18.9863 81.6534 18.0964C82.4543 17.2066 83.5272 16.7617 84.8722 16.7617ZM95.7757 21.9625C96.0427 22.0546 96.3096 22.254 96.5766 22.5608C96.8332 22.8574 97.095 23.2717 97.362 23.8035L98.671 26.3962H97.285L96.0683 23.9723C95.75 23.3382 95.4472 22.9188 95.1597 22.7143C94.862 22.4995 94.4564 22.3921 93.9431 22.3921H92.557V26.3962H91.2634V16.9305H94.1587C95.247 16.9305 96.0581 17.1555 96.5919 17.6055C97.1258 18.0658 97.3928 18.751 97.3928 19.6613C97.3928 20.2545 97.2542 20.7505 96.977 21.1494C96.6998 21.5381 96.2993 21.8091 95.7757 21.9625ZM94.1587 17.989H92.557V21.3489H94.1587C94.785 21.3489 95.2521 21.2057 95.5601 20.9193C95.8784 20.6329 96.0375 20.2136 96.0375 19.6613C96.0375 19.109 95.8784 18.6896 95.5601 18.4033C95.2521 18.1271 94.785 17.989 94.1587 17.989ZM98.055 18.0044V16.9305H106.094V18.0044H102.721V26.3962H101.428V18.0044H98.055ZM111.238 22.8984L109.498 18.1885L107.742 22.8984H111.238ZM105.139 26.3962L108.774 16.9305H110.221L113.841 26.3962H112.516L111.638 23.9723H107.357L106.494 26.3962H105.139ZM115.227 26.3962V16.9305H116.52V25.3223H121.14V26.3962H115.227ZM133.738 17.6669V19.0169C133.307 18.6078 132.845 18.3061 132.352 18.1118C131.869 17.9175 131.351 17.8203 130.797 17.8203C129.708 17.8203 128.877 18.1476 128.302 18.8022C127.727 19.467 127.439 20.4232 127.439 21.671C127.439 22.9188 127.727 23.8751 128.302 24.5399C128.877 25.1945 129.708 25.5218 130.797 25.5218C131.351 25.5218 131.869 25.4246 132.352 25.2303C132.845 25.036 133.307 24.7342 133.738 24.3251V25.6599C133.297 25.9667 132.824 26.1968 132.321 26.3502C131.818 26.5036 131.284 26.5803 130.72 26.5803C129.282 26.5803 128.153 26.1405 127.331 25.261C126.5 24.3916 126.084 23.195 126.084 21.671C126.084 20.1573 126.5 18.9607 127.331 18.0811C128.153 17.2015 129.282 16.7617 130.72 16.7617C131.294 16.7617 131.828 16.8384 132.321 16.9918C132.824 17.135 133.297 17.36 133.738 17.6669ZM135.586 22.837V16.9305H136.88V22.6836C136.88 23.6961 137.065 24.4274 137.434 24.8774C137.804 25.3172 138.399 25.5371 139.221 25.5371C140.042 25.5371 140.637 25.3172 141.007 24.8774C141.377 24.4274 141.561 23.6961 141.561 22.6836V16.9305H142.855V22.837C142.855 24.0745 142.547 25.0053 141.931 25.6292C141.325 26.2633 140.422 26.5803 139.221 26.5803C138.019 26.5803 137.111 26.2633 136.495 25.6292C135.889 25.0053 135.586 24.0745 135.586 22.837ZM145.273 26.3962V16.9305H146.551V25.3223H151.171V26.3962H145.273ZM149.431 18.0044V16.9305H157.47V18.0044H154.098V26.3962H152.804V18.0044H149.431ZM158.564 22.837V16.9305H159.842V22.6836C159.842 23.6961 160.027 24.4274 160.396 24.8774C160.766 25.3172 161.367 25.5371 162.198 25.5371C163.02 25.5371 163.615 25.3172 163.985 24.8774C164.354 24.4274 164.539 23.6961 164.539 22.6836V16.9305H165.833V22.837C165.833 24.0745 165.525 25.0053 164.909 25.6292C164.293 26.2633 163.389 26.5803 162.198 26.5803C160.997 26.5803 160.088 26.2633 159.472 25.6292C158.867 25.0053 158.564 24.0745 158.564 22.837ZM172.748 21.9625C173.025 22.0546 173.292 22.254 173.548 22.5608C173.805 22.8574 174.067 23.2717 174.334 23.8035L175.643 26.3962H174.257L173.04 23.9723C172.732 23.3382 172.429 22.9188 172.132 22.7143C171.834 22.4995 171.433 22.3921 170.93 22.3921H169.529V26.3962H168.235V16.9305H171.146C172.224 16.9305 173.035 17.1555 173.579 17.6055C174.113 18.0658 174.38 18.751 174.38 19.6613C174.38 20.2545 174.236 20.7505 173.949 21.1494C173.672 21.5381 173.271 21.8091 172.748 21.9625ZM171.146 17.989H169.529V21.3489H171.146C171.762 21.3489 172.229 21.2057 172.547 20.9193C172.866 20.6329 173.025 20.2136 173.025 19.6613C173.025 19.109 172.866 18.6896 172.547 18.4033C172.229 18.1271 171.762 17.989 171.146 17.989ZM181.695 22.8984L179.94 18.1885L178.199 22.8984H181.695ZM175.597 26.3962L179.216 16.9305H180.679L184.298 26.3962H182.958L182.096 23.9723H177.814L176.952 26.3962H175.597ZM185.684 26.3962V16.9305H186.962V25.3223H191.598V26.3962H185.684ZM92.6186 33.1926V36.5217C91.5508 35.5296 90.4112 34.7881 89.1997 34.2972C87.9882 33.8062 86.7048 33.5608 85.3496 33.5608C82.6596 33.5608 80.6011 34.3841 79.174 36.0308C77.7571 37.657 77.0487 40.0145 77.0487 43.1033C77.0487 46.1818 77.7571 48.5444 79.174 50.1911C80.6011 51.8173 82.6596 52.6304 85.3496 52.6304C86.7048 52.6304 87.9882 52.3849 89.1997 51.894C90.4112 51.4031 91.5508 50.6616 92.6186 49.6695V52.9832C91.5098 53.7299 90.3342 54.2924 89.0919 54.6708C87.8496 55.0493 86.5354 55.2385 85.1494 55.2385C81.597 55.2385 78.7992 54.1543 76.7561 51.986C74.7129 49.8178 73.6914 46.8568 73.6914 43.1033C73.6914 39.3497 74.7129 36.3887 76.7561 34.2205C78.7992 32.0522 81.597 30.968 85.1494 30.968C86.5559 30.968 87.8804 31.1573 89.1227 31.5357C90.365 31.8937 91.5303 32.446 92.6186 33.1926ZM97.1772 45.9875V31.3823H100.365V45.6039C100.365 48.1097 100.822 49.9149 101.736 51.0195C102.639 52.1139 104.118 52.6611 106.171 52.6611C108.204 52.6611 109.677 52.1139 110.591 51.0195C111.495 49.9149 111.946 48.1097 111.946 45.6039V31.3823H115.15V45.9875C115.15 49.0353 114.39 51.3366 112.87 52.8912C111.361 54.456 109.128 55.2385 106.171 55.2385C103.204 55.2385 100.961 54.456 99.441 52.8912C97.9318 51.3366 97.1772 49.0353 97.1772 45.9875ZM135.186 32.1647V35.2484C133.974 34.6756 132.835 34.246 131.767 33.9597C130.699 33.6733 129.667 33.5301 128.671 33.5301C126.936 33.5301 125.596 33.8676 124.652 34.5426C123.728 35.2074 123.266 36.1586 123.266 37.3962C123.266 38.4292 123.574 39.2116 124.19 39.7434C124.816 40.2651 126.002 40.6844 127.747 41.0015L129.657 41.4003C132.029 41.8504 133.774 42.643 134.893 43.7783C136.022 44.9033 136.587 46.417 136.587 48.3194C136.587 50.59 135.822 52.3082 134.292 53.4742C132.773 54.6504 130.54 55.2385 127.593 55.2385C126.484 55.2385 125.304 55.1106 124.051 54.8549C122.799 54.6095 121.5 54.2413 120.155 53.7503V50.4826C121.448 51.2087 122.711 51.7508 123.943 52.1088C125.186 52.477 126.402 52.6611 127.593 52.6611C129.41 52.6611 130.812 52.3082 131.798 51.6025C132.783 50.8866 133.276 49.874 133.276 48.5649C133.276 47.4091 132.922 46.5091 132.213 45.8647C131.505 45.2204 130.345 44.7346 128.733 44.4073L126.792 44.0391C124.431 43.5686 122.716 42.8322 121.649 41.8299C120.591 40.8276 120.062 39.4315 120.062 37.6416C120.062 35.5756 120.791 33.9443 122.249 32.7477C123.717 31.5613 125.735 30.968 128.302 30.968C129.41 30.968 130.535 31.0652 131.674 31.2595C132.814 31.4641 133.984 31.7658 135.186 32.1647ZM159.133 33.1926V36.5217C158.066 35.5296 156.921 34.7881 155.699 34.2972C154.498 33.8062 153.215 33.5608 151.849 33.5608C149.169 33.5608 147.116 34.3841 145.689 36.0308C144.262 37.657 143.548 40.0145 143.548 43.1033C143.548 46.1818 144.262 48.5444 145.689 50.1911C147.116 51.8173 149.169 52.6304 151.849 52.6304C153.215 52.6304 154.498 52.3849 155.699 51.894C156.921 51.4031 158.066 50.6616 159.133 49.6695V52.9832C158.025 53.7299 156.844 54.2924 155.591 54.6708C154.349 55.0493 153.04 55.2385 151.664 55.2385C148.112 55.2385 145.309 54.1543 143.256 51.986C141.212 49.8178 140.191 46.8568 140.191 43.1033C140.191 39.3497 141.212 36.3887 143.256 34.2205C145.309 32.0522 148.112 30.968 151.664 30.968C153.071 30.968 154.39 31.1573 155.622 31.5357C156.875 31.8937 158.045 32.446 159.133 33.1926ZM173.564 33.5301C171.254 33.5301 169.421 34.3892 168.066 36.1075C166.711 37.8155 166.033 40.1474 166.033 43.1033C166.033 46.0488 166.711 48.3808 168.066 50.099C169.421 51.8071 171.254 52.6611 173.564 52.6611C175.874 52.6611 177.696 51.8071 179.031 50.099C180.386 48.3808 181.064 46.0488 181.064 43.1033C181.064 40.1474 180.386 37.8155 179.031 36.1075C177.696 34.3892 175.874 33.5301 173.564 33.5301ZM173.564 30.968C176.86 30.968 179.493 32.0675 181.464 34.2665C183.436 36.4655 184.421 39.411 184.421 43.1033C184.421 46.7955 183.436 49.7411 181.464 51.94C179.493 54.139 176.86 55.2385 173.564 55.2385C170.258 55.2385 167.614 54.139 165.633 51.94C163.672 49.7513 162.691 46.8057 162.691 43.1033C162.691 39.411 163.672 36.4655 165.633 34.2665C167.614 32.0675 170.258 30.968 173.564 30.968Z" fill="#1D1D1D"/>
</svg>
