<?xml version="1.0" encoding="UTF-8"?>
<svg id="Capa_2" data-name="Capa 2" xmlns="http://www.w3.org/2000/svg" viewBox="0 0 1088.93 1205.98">
  <defs>
    <style>
      .cls-1 {
        letter-spacing: 0em;
      }

      .cls-2 {
        letter-spacing: .08em;
      }

      .cls-3 {
        letter-spacing: .14em;
      }

      .cls-4 {
        letter-spacing: -.16em;
      }

      .cls-5 {
        font-size: 126.44px;
      }

      .cls-5, .cls-6 {
        fill: #f9db5c;
      }

      .cls-5, .cls-7 {
        font-family: AlpacaScarlettDemo, 'Alpaca Scarlett Demo';
      }

      .cls-8 {
        letter-spacing: -.18em;
      }

      .cls-9 {
        letter-spacing: .13em;
      }

      .cls-10 {
        letter-spacing: 0em;
      }

      .cls-11 {
        letter-spacing: -.06em;
      }

      .cls-7 {
        fill: red;
        font-size: 270.33px;
      }
    </style>
  </defs>
  <g id="Capa_1-2" data-name="Capa 1">
    <g>
      <path class="cls-6" d="M462.36,374.4c-.39,35.5,23.04,69.48,56.36,81.56,56.67,21.48,117.95-21.34,117.71-81.56.2-60.19-60.57-101.69-117.71-81.54-32.64,11.51-56.76,46.04-56.37,81.54h0ZM468.38,375.16c-.6-48.74,35.75-91.3,84.87-92.45,51.78-2.11,95.82,40.56,95.51,92.45.29,51.87-43.76,94.52-95.51,92.42-49.1-1.14-85.47-43.68-84.87-92.42h0Z"/>
      <text class="cls-7" transform="translate(0 1156.36)"><tspan class="cls-3" x="0" y="0">CUS</tspan><tspan class="cls-2" x="636.72" y="0">C</tspan><tspan class="cls-9" x="857.19" y="0">O</tspan></text>
      <text class="cls-5" transform="translate(5.06 900.56)"><tspan x="0" y="0">PO</tspan><tspan class="cls-11" x="179.38" y="0">R</tspan><tspan class="cls-8" x="245.3" y="0">T</tspan><tspan class="cls-1" x="292.95" y="0">AL CU</tspan><tspan class="cls-4" x="652.76" y="0">L</tspan><tspan class="cls-10" x="699.36" y="0">TURAL</tspan></text>
      <path class="cls-6" d="M916.1,730.34c-9.34-78.34-18.79-157-28.66-235.71-8.63-2.68-17.25-5.38-25.87-8.09,16.23,79.93,52.66,241.83,54.53,243.81Z"/>
      <path class="cls-6" d="M210.33,716.83c8.74-75.68,17.74-151.41,28.07-226.94-5.13,1.55-10.26,3.08-15.39,4.61-4.18,23.88-8.53,47.74-13.07,71.56-11.23,59.26-23.86,121.21-35.21,180.52-.52,2.59-.32,5.12.42,7.45,11.65-12.45,23.39-24.84,35.18-37.2Z"/>
      <path class="cls-6" d="M255.14,376.13c-5.83-.6-7.8-.6-12.52-1.66-5.3,34.8-10.91,69.55-16.87,104.24,4.99-1.95,10-3.88,15-5.82,4.58-32.8,9.19-64.06,14.39-96.76Z"/>
      <path class="cls-6" d="M298.93,133.03c-7.26-7.43-14.07-16.5-21.03-23.63-5.72,46.69-11.44,93.44-11.44,93.44-2.54,20.11-5.17,40.2-7.88,60.29,4.92,1.62,9.84,3.24,14.78,4.87,6.68-37.77,16.29-87.09,25.57-134.97Z"/>
      <path class="cls-6" d="M414.13,730.92c-67.27-.71-133.26-.38-200.49,1.44-10.89,9.92-21.81,19.81-32.77,29.62,2.71,1.99,6.06,3.16,9.67,3.05,70.52,2.18,141.19,2.8,211.89,2.32,4.02-13.07,8.08-25.76,11.7-36.44Z"/>
      <path class="cls-6" d="M268.6,296.18c.96-6.13,2.12-13.08,3.44-20.66-4.83-1.78-9.63-3.55-14.41-5.31-4.54,33.42-9.32,66.81-14.38,100.16,5.74-.44,8.15-.78,12.99-1.06,3.96-24.71,7.96-48.5,12.37-73.13Z"/>
      <path class="cls-6" d="M316.93,38.48c38.07,1.03,73.25,1.75,112.68,2.52-3.72-12.4-6.42-24.53-9.51-36.84-41.88.63-82.84,1.63-117.03,3.12-7.2.22-13.35,5.66-14.25,13.02,0,0-4.99,40.75-9.84,80.36,7.3,7.09,15.28,11.04,22.7,18.25,6.07-31.35,11.12-57.61,15.26-80.43Z"/>
      <path class="cls-6" d="M423.35,731c-4.66,10.58-12.9,27.98-16.73,36.32,47.26-.35,94.54-1.19,141.8-2.39-.53-10.48-1.01-20.97-1.44-31.45-41.89-1.14-81.75-2.01-123.63-2.48Z"/>
      <path class="cls-6" d="M840.49,381.49c5.73,28.94,11.1,55.74,16.95,84.67,9.26,3.5,18.51,7.03,27.74,10.6-4.12-32.63-8.31-65.26-12.61-97.88-10.83.19-21.24,2.48-32.09,2.61Z"/>
      <path class="cls-6" d="M691.3,738.25c1.6,5.83,3.83,15.66,5.43,21.87,72.94-2.81,145.77-6.15,218.37-9.56-1.08-1.01-149.66-9.45-223.8-12.31Z"/>
      <path class="cls-6" d="M681.5,737.53c-41.13-1.57-79.84-2.49-120.96-3.67-.45,10.27-.96,20.54-1.5,30.8,44.52-1.18,89.02-2.68,133.49-4.37-3.49-7.27-7.69-15.49-11.02-22.75Z"/>
      <path class="cls-6" d="M548.55,42.91c.81-13.79,1.47-27.51,2.62-40.65-.02,0-.29.18-.31.18-37.13.75-78.66.99-123.47,1.65,4.54,12.29,10.58,24.63,15.15,36.99,37.32.72,68.3,1.32,106.01,1.83Z"/>
      <path class="cls-6" d="M778.47,45.2c2,12.06,4.23,25.45,4.23,25.45,4.31,25.33,8.32,48.26,12.9,73.84,13.16-12.56,26.5-22.29,38.91-34.12-2.3-14.96-4.64-29.92-7.01-44.85l-7.54-46.49c-1.73-10.73-11.02-18.93-22.24-18.95-28.83-.24-60.77.09-96.65.56-4.72,14.49-8.93,29.03-13.73,43.87,32.62.28,59.46.51,91.13.68Z"/>
      <path class="cls-6" d="M836.75,362.58c11.14.9,22.48,1.85,34.13,3.35-4.16-31.46-8.43-62.91-12.8-94.32-12.09,4.42-23.82,11.05-36,15.49,5.14,26.81,9.37,48.59,14.67,75.48Z"/>
      <path class="cls-6" d="M673.12,44.5c5.78-14.78,13.6-29.4,19.28-43.83-48.3.65-94.51,1.35-134.68,1.54.82,13.36,1.57,26.97,2.33,40.75,40.37.54,73.22,1.2,113.07,1.54Z"/>
      <path class="cls-6" d="M819.52,273.77c12.46-4.07,25.29-5.67,37.5-9.65-6.76-48.35-13.78-96.62-21.14-144.75-12.5,12.57-24.8,27.41-37.57,40.24,7.09,39.36,13.63,74.43,21.21,114.17Z"/>
      <path class="cls-6" d="M558.89,140.14c-.52-32.48-3.27-95.64-5.18-126.96-1.08,31.32-4.62,94.41-5.16,127.43,1.87-.65,3.87-1.02,5.96-1.02,1.51,0,2.97.2,4.38.55Z"/>
      <path class="cls-6" d="M560.19,225.05c-.24-16.51-.49-33.11-.75-49.74-1.57.44-3.22.69-4.93.69-2.3,0-4.48-.44-6.51-1.22-.27,17-.53,33.99-.78,50.88,2.23-.98,4.69-1.53,7.29-1.53,1.99,0,3.89.33,5.68.92Z"/>
      <path class="cls-6" d="M691.42,16.84c-1.37-.01-30.58,71.07-39.15,93.11,1.65.41,3.21,1.04,4.65,1.86,8.36-22.52,26.21-72.66,34.5-94.97Z"/>
      <path class="cls-6" d="M840.06,273.77c-20.9,5.42-58.36,14.96-77.67,21.28,2.19,2.81,3.57,6.28,3.8,10.07,18.51-6.73,60.19-25.35,73.88-31.35Z"/>
      <path class="cls-6" d="M407.92,226.24c-16.55-16.14-33.18-32.35-49.74-48.49-1.73,2.75-4.17,5.01-7.08,6.51,16.14,16.49,32.56,33.26,48.99,50.03,1.7-3.44,4.44-6.26,7.82-8.05Z"/>
      <path class="cls-6" d="M332.69,152.92c-10.62-10.34-49.5-43.53-49.5-43.53,0,0,34.25,40.46,43.58,49.99,1.42-2.61,3.46-4.83,5.92-6.46Z"/>
      <path class="cls-6" d="M801.58,612.17c-29.53-29.83-59.26-59.43-89.12-88.84-2.14,7.2-8.6,12.52-16.37,12.97,29.4,29.7,58.96,59.25,88.78,88.62,2.24-7.2,8.84-12.46,16.72-12.75Z"/>
      <path class="cls-6" d="M601.66,260.58c-2.34-.8-4.45-2.06-6.26-3.67-3.87,10.04-7.73,20.03-11.58,30.01,2.4.76,4.75,1.62,7.06,2.56,3.59-9.63,7.19-19.27,10.78-28.9Z"/>
      <path class="cls-6" d="M419.45,408.03c5.42,3.15,9.08,9.01,9.08,15.74,0,1.25-.13,2.48-.37,3.66,14.68-5.16,29.33-10.4,43.95-15.66-2.71-6.09-4.78-12.52-6.12-19.22-15.5,5.1-31.04,10.26-46.55,15.48Z"/>
      <path class="cls-6" d="M600.33,513.01c2.21-.96,4.65-1.49,7.21-1.49.92,0,1.81.09,2.69.22-6.26-17.45-12.56-34.94-18.9-52.47-2.85,1.19-5.77,2.23-8.76,3.13,6.09,17.29,12.02,34.19,17.76,50.61Z"/>
      <path class="cls-6" d="M493.41,520.01c-2.94,7.74-5.9,15.56-8.87,23.44,3.36.39,6.43,1.69,8.98,3.65,10.93-28.41,21.85-57.02,32.76-85.75-2.94-1.01-5.81-2.16-8.6-3.45-8.31,21.36-16.42,42.13-24.27,62.1Z"/>
      <path class="cls-6" d="M696.42,430.8c-.91-2.16-1.41-4.54-1.41-7.03,0-5.41,2.37-10.25,6.11-13.58-18.28-6.23-36.58-12.37-54.87-18.45-1.24,6.51-3.16,12.77-5.69,18.71,18.52,6.81,37.17,13.62,55.86,20.36Z"/>
      <path class="cls-6" d="M497.22,202.64c-1.91.93-3.99,1.55-6.2,1.77,10.11,28.47,20.22,56.9,30.23,85.06,2.31-.95,4.68-1.81,7.08-2.57-10.36-28.12-20.75-56.22-31.12-84.25Z"/>
      <path class="cls-6" d="M687.25,268.46c-3.91-1.85-7.06-5.04-8.84-8.99-18.8,17.99-37.27,35.66-54.98,52.62,3.26,3.52,6.25,7.3,8.93,11.3,17.82-17.83,36.2-36.22,54.88-54.92Z"/>
      <path class="cls-6" d="M446.7,325.43c-.26,4.77-2.34,9.05-5.57,12.15,9.09,3.32,18.14,6.62,27.13,9.9,1.39-4.54,3.13-8.93,5.18-13.14-8.88-2.96-17.78-5.93-26.73-8.92Z"/>
      <path class="cls-6" d="M793.65,365.14c-48.94-.23-97.82.06-146.18.66.27,2.85.41,5.74.41,8.66,0,1.54-.04,3.06-.11,4.58,47.65.59,95.83.88,144.07.67-.5-1.66-.78-3.42-.78-5.25,0-3.41.96-6.59,2.59-9.32Z"/>
      <path class="cls-6" d="M490.62,438.88c-25.46,24.22-50.89,48.58-76.21,73.11,7.44,1.7,13.13,7.95,14.01,15.67,25.77-25.48,51.37-51.07,76.83-76.7-5.29-3.52-10.18-7.57-14.62-12.08Z"/>
      <path class="cls-6" d="M543.68,465.46c-.1,6.56-.19,13.13-.28,19.71,2.99-2.15,6.65-3.44,10.62-3.44,3.7,0,7.13,1.11,10,3-.06-6.26-.16-12.51-.24-18.77-2.55.21-5.13.33-7.74.33-4.19,0-8.32-.29-12.37-.83Z"/>
      <path class="cls-6" d="M610.16,448.66c22.16,22.8,44.39,45.54,66.71,68.19.54-7.56,5.67-13.84,12.64-16.05-21.91-21.46-43.89-42.83-65.9-64.13-4.07,4.42-8.58,8.44-13.44,12Z"/>
      <path class="cls-6" d="M658.46,344.17c-3.38-3.31-5.48-7.91-5.48-13.01,0-.05,0-.09,0-.13-4.6,1.52-9.17,3.03-13.74,4.54,2.05,4.39,3.78,8.96,5.13,13.69,4.68-1.69,9.38-3.38,14.09-5.09Z"/>
      <path class="cls-6" d="M561,282.77c-.1-7.74-.21-15.51-.32-23.31-1.93.7-4,1.1-6.17,1.1-2.78,0-5.41-.64-7.77-1.76-.12,8.16-.23,16.28-.34,24.34,3.17-.33,6.39-.5,9.65-.5,1.66,0,3.31.05,4.95.13Z"/>
      <path class="cls-6" d="M464.46,367.85c-32.27.33-65.72.69-99.09,1.07.43,1.56.68,3.19.68,4.89,0,.72-.05,1.43-.14,2.13,33.12.37,66.3.73,98.34,1.06-.02-.84-.04-1.68-.04-2.53,0-2.23.08-4.43.24-6.62Z"/>
      <path class="cls-6" d="M492.18,308.49c-19.39-18.94-39.31-38.39-59.47-58.07-1.83,3.68-4.85,6.64-8.58,8.39,19.98,20.39,39.76,40.55,58.86,60.02,2.8-3.68,5.88-7.14,9.19-10.35Z"/>
      <path class="cls-6" d="M689.31,333.02c14.63-5.3,29.34-10.63,44.09-15.98-2.24-3.02-3.58-6.75-3.58-10.8,0-.17.02-.33.03-.5-14.76,4.85-29.49,9.69-44.12,14.51,2.29,3.05,3.67,6.82,3.67,10.93,0,.63-.03,1.25-.09,1.86Z"/>
      <path class="cls-6" d="M820.42,631.26c-.38,7.65-5.46,14.04-12.42,16.36,33.8,33.03,71.61,59.04,106.18,91.52,1.14.05-63.77-77.39-93.76-107.88Z"/>
      <path class="cls-6" d="M826.76,379.47c4.43-.04,24.64-5.81,30.42-7.5-10.17-2.34-28.06-6.58-32.16-6.61,1.55,2.68,2.46,5.79,2.46,9.11,0,1.74-.26,3.41-.71,5Z"/>
      <path class="cls-6" d="M721.73,439.86c40.98,14.55,132.78,37.55,156.15,43.7-20.71-9.66-104.47-48.39-146.77-63.06.19,1.06.31,2.15.31,3.27,0,6.98-3.93,13.04-9.7,16.09Z"/>
      <path class="cls-6" d="M612.64,547.2c10.22,28.05,20.79,56.76,31.47,85.46,2.43-1.36,5.2-2.16,8.15-2.28-10.24-29.29-20.66-58.79-31.24-88.45-2.23,2.46-5.11,4.31-8.39,5.27Z"/>
      <path class="cls-6" d="M267.97,270.78c5.6,3.29,14.82,7.46,20.39,10.76.08-2.85.81-5.54,2.05-7.92-6.42-.65-10.26-1.63-22.45-2.84Z"/>
      <path class="cls-6" d="M392.12,423.77c0-2.45.49-4.79,1.37-6.93-27.86,9.54-55.51,19.31-82.57,29.35,4.01,3.34,6.57,8.37,6.57,14,0,1.76-.26,3.45-.73,5.06,27.38-8.92,54.67-18.12,81.88-27.52-3.98-3.34-6.52-8.35-6.52-13.96Z"/>
      <path class="cls-6" d="M392.47,533.3c-30.25,29.48-60.32,59.2-90.13,89.17,6.97,1.65,12.39,7.31,13.69,14.41,30.9-29.45,61.56-59.19,91.98-89.1-7.78-.99-14.03-6.87-15.54-14.48Z"/>
      <path class="cls-6" d="M427.39,18.23c3.58,11.01,13.94,45.53,17.94,56.92,1.32-.6,2.72-1.04,4.19-1.31-4.03-10.89-19.2-48.8-22.13-55.61Z"/>
      <path class="cls-6" d="M280.48,644.55c-23.59,23.93-69.36,78.07-81.36,93.83,12.11-10.49,68.22-55.42,94.79-80.51-6.61-1.57-11.81-6.73-13.44-13.31Z"/>
      <path class="cls-6" d="M417.53,733.98c6.15-12.51,16.08-33.67,22.22-49.16-2.47-.31-4.78-1.1-6.84-2.3-5.93,16.28-10.99,35.1-15.38,51.46Z"/>
      <path class="cls-6" d="M445.24,648.86c2.75.49,5.29,1.61,7.46,3.19,9.42-23.94,18.83-48.08,28.24-72.39-3.27-.26-6.29-1.38-8.85-3.15-8.95,23.9-17.95,48.14-26.86,72.35Z"/>
      <path class="cls-6" d="M543.09,514.48c-.22,26.21-.27,52.41-.03,78.37,3.05-2.31,6.84-3.69,10.96-3.69,3.75,0,7.22,1.13,10.12,3.07.23-25.75.25-51.5.11-77.23-2.92,1.99-6.44,3.15-10.23,3.15-4.11,0-7.89-1.38-10.93-3.67Z"/>
      <path class="cls-6" d="M543.47,622.2c.24,12.53.54,24.98.95,37.32.71,24.67,6.53,65.87,9.19,90.89,1.73-16.55,9.57-90.58,10.14-127.67-2.82,1.79-6.15,2.84-9.74,2.84-3.94,0-7.57-1.26-10.55-3.38Z"/>
      <path class="cls-6" d="M690.28,748.36c-5.59-17.36-17.85-59.92-26.58-85.11-2.05,1.5-4.41,2.59-6.98,3.13,9.1,24.24,29.54,74.18,33.56,81.98Z"/>
      <path class="cls-6" d="M330.21,369.32c-25.21.29-57.63,2-78.81,3.1,24.15,1.31,53.04,2.81,78.32,3.1-.05-.57-.09-1.14-.09-1.72,0-1.55.22-3.05.58-4.49Z"/>
      <path class="cls-6" d="M461.97,107.46c-1.42.83-2.97,1.46-4.6,1.88,7.22,20.47,14.51,41.09,21.84,61.76,1.64-1.09,3.48-1.9,5.44-2.42-7.58-20.47-15.14-40.88-22.68-61.23Z"/>
      <path class="cls-6" d="M413.39,314.34c-29.52-9.81-59.25-19.67-88.87-29.46-.5,3.21-1.83,6.15-3.78,8.57,29.67,10.91,59.78,21.96,89.69,32.9-.07-.63-.1-1.27-.1-1.91,0-3.74,1.13-7.21,3.06-10.1Z"/>
      <path class="cls-6" d="M281.06,460.19c0-.96.1-1.89.24-2.81-13.77,7.87-27.82,15.43-43.84,24.87,20.18-2.61,28.54-4.83,50.55-7.76-4.23-3.33-6.95-8.49-6.95-14.29Z"/>
      <path class="cls-6" d="M711.45,244.22c14.02-14.04,28.13-28.19,42.25-42.35-2.6-2.48-4.48-5.71-5.26-9.36-15.02,14.35-30.17,28.84-45.24,43.24,3.61,1.82,6.51,4.8,8.25,8.46Z"/>
      <path class="cls-6" d="M821.32,127.71c-8.29,7.91-41.97,35.28-50.45,43.38,3.3.86,6.23,2.62,8.52,5.01,6.2-6.22,31.76-35.02,41.93-48.39Z"/>
      <path class="cls-6" d="M644.43,145.48c-1.86-.36-3.62-.99-5.23-1.86-10.5,27.09-21.04,54.35-31.54,81.54,2.36.02,4.62.49,6.69,1.32,10.06-27.06,20.09-54.08,30.08-81Z"/>
      <circle class="cls-6" cx="553.72" cy="157.7" r="9.83"/>
      <circle class="cls-6" cx="553.72" cy="244.22" r="9.83"/>
      <circle class="cls-6" cx="647.88" cy="127.71" r="9.83"/>
      <circle class="cls-6" cx="606.03" cy="242.38" r="9.83"/>
      <circle class="cls-6" cx="695.56" cy="252.21" r="9.83"/>
      <circle class="cls-6" cx="747.9" cy="305.12" r="9.83"/>
      <circle class="cls-6" cx="671.91" cy="331.24" r="9.83"/>
      <circle class="cls-6" cx="809.33" cy="372.41" r="9.83"/>
      <circle class="cls-6" cx="713.04" cy="424.65" r="9.83"/>
      <circle class="cls-6" cx="693.37" cy="518.44" r="9.83"/>
      <circle class="cls-6" cx="802.62" cy="630.52" r="9.83"/>
      <circle class="cls-6" cx="611.45" cy="528.28" r="9.83"/>
      <circle class="cls-6" cx="653.9" cy="647.96" r="9.83"/>
      <circle class="cls-6" cx="553.62" cy="500.97" r="9.83"/>
      <circle class="cls-6" cx="553.62" cy="607.53" r="9.83"/>
      <circle class="cls-6" cx="483.72" cy="561.81" r="9.83"/>
      <circle class="cls-6" cx="442.54" cy="667.29" r="9.83"/>
      <circle class="cls-6" cx="409.81" cy="530.62" r="9.83"/>
      <circle class="cls-6" cx="409.81" cy="423.47" r="9.83"/>
      <circle class="cls-6" cx="347.79" cy="372.42" r="9.83"/>
      <circle class="cls-6" cx="429.48" cy="326.35" r="9.83"/>
      <circle class="cls-6" cx="415.53" cy="242.38" r="9.83"/>
      <circle class="cls-6" cx="342.52" cy="169.22" r="9.83"/>
      <circle class="cls-6" cx="488.85" cy="186.87" r="9.83"/>
      <circle class="cls-6" cx="454.39" cy="91.85" r="9.83"/>
      <circle class="cls-6" cx="305.58" cy="284.88" r="9.83"/>
      <circle class="cls-6" cx="299.47" cy="462.02" r="9.83"/>
      <circle class="cls-6" cx="298.13" cy="640.83" r="9.83"/>
      <circle class="cls-6" cx="763.53" cy="185.05" r="9.83"/>
    </g>
  </g>
</svg>