<svg width="121" height="45" viewBox="0 0 121 45" fill="none" xmlns="http://www.w3.org/2000/svg">
<path fill-rule="evenodd" clip-rule="evenodd" d="M44.6628 22.28C44.6628 23.5729 44.5516 24.8289 44.3476 26.0296C44.5701 24.8105 44.6721 23.5544 44.6628 22.28C44.6721 21.0239 44.5701 19.7864 44.3569 18.5858C44.5516 19.7771 44.6628 21.0055 44.6628 22.28ZM6.81879 38.322C-2.26675 29.7238 -2.27602 14.8361 6.80952 6.22867C20.1782 -6.44241 41.5478 1.49087 44.3569 18.5858C42.5861 8.56525 33.4264 0.816679 22.9224 1.22304C11.6675 1.43546 2.24821 11.0958 2.38727 22.28C2.17404 33.3348 11.7324 43.2076 22.9224 43.3369C33.4079 43.7432 42.5491 36.0224 44.3476 26.0296C41.4922 43.0875 20.169 50.9654 6.81879 38.322Z" fill="black"/>
<path fill-rule="evenodd" clip-rule="evenodd" d="M15.9136 5.32358C27.0388 1.13067 39.0725 9.50726 39.0354 21.2825C39.0817 33.067 27.048 41.4436 15.9136 37.2414C9.35905 34.8771 4.76066 28.2276 4.83482 21.2825C4.76066 14.3374 9.36832 7.68787 15.9136 5.32358ZM22.5423 39.5318C32.8053 39.9474 41.5293 31.5247 41.4736 21.2825C41.5385 11.0404 32.8053 2.61758 22.5423 3.03318C12.8078 3.25483 4.72357 11.6591 4.83482 21.2825C4.7143 30.9059 12.8171 39.3009 22.5423 39.5318Z" fill="black"/>
<path d="M14.0967 23.3051H16.9429C17.7402 23.3051 17.9534 23.5822 17.9534 23.9147L17.119 31.2384C17.119 31.5709 16.915 31.8479 16.1085 31.8479H12.5855C11.6769 31.8479 11.1392 31.5709 11.167 31.1183L12.6782 23.7946C12.8173 23.5083 13.4106 23.3051 14.0967 23.3051Z" fill="black"/>
<path d="M15.4315 16.166H17.7585C18.4075 16.166 18.5744 16.3784 18.5744 16.6463L17.8976 22.3815C17.8976 22.6401 17.7585 23.0834 17.1003 23.0834H14.2263C13.4846 23.0834 13.0211 22.6401 13.0396 22.2891L14.2726 16.5447C14.3839 16.323 14.8752 16.166 15.4315 16.166Z" fill="black"/>
<path d="M30.5708 23.3051H27.7246C26.9181 23.3051 26.7141 23.5822 26.7141 23.9147L27.5485 31.2384C27.5485 31.5709 27.7525 31.8479 28.5498 31.8479H32.082C32.9905 31.8479 33.5283 31.5709 33.5005 31.1183L31.9893 23.7946C31.8502 23.5083 31.2569 23.3051 30.5708 23.3051Z" fill="black"/>
<path d="M29.2268 16.166H26.9091C26.2601 16.166 26.084 16.3784 26.084 16.6463L26.77 22.3815C26.77 22.6401 26.9555 23.0834 27.6044 23.0834H30.4784C31.2294 23.0834 31.6466 22.6401 31.6187 22.2891L30.3857 16.5447C30.2745 16.323 29.7924 16.166 29.2268 16.166Z" fill="black"/>
<path d="M15.5984 11.7423L14.9309 13.7741C14.6342 14.6699 15.4222 15.852 16.5348 15.852H28.142C29.2916 15.852 30.0703 14.6145 29.7088 13.7002L28.9115 11.6776C28.6797 11.0958 28.04 10.7079 27.3076 10.7079H17.2208C16.4606 10.7079 15.8023 11.1327 15.5984 11.7423Z" fill="black"/>
<path d="M15.3758 18.8628C15.3387 18.8875 15.3016 18.9059 15.2645 18.9182L13.6699 19.3523L15.4685 19.0753C15.5241 19.066 15.5797 19.0383 15.6261 18.9921L18.3796 16.2861L15.3758 18.8628Z" fill="white"/>
<path d="M28.0586 21.6796C28.0277 21.7042 27.9907 21.7227 27.9474 21.735L26.3621 22.1599L28.1514 21.8828C28.2163 21.8736 28.2626 21.8551 28.309 21.8089L31.0717 19.1029L28.0586 21.6796Z" fill="white"/>
<path d="M30.2096 25.7802C30.2405 25.7556 30.2745 25.7371 30.3116 25.7248L32.2863 25.2261L30.1818 25.614C30.1262 25.6232 30.0705 25.6509 30.0334 25.6878L27.1965 28.3569L30.2096 25.7802Z" fill="white"/>
<path d="M51.44 10.2277H50.4665V12.3703H51.44C51.7984 12.3703 52.0766 12.2749 52.2743 12.084C52.4721 11.8993 52.571 11.6345 52.571 11.2898C52.571 10.9511 52.4721 10.6894 52.2743 10.5047C52.0766 10.32 51.7984 10.2277 51.44 10.2277ZM49.697 15.2887V9.59042H51.44C52.0827 9.59042 52.5648 9.73511 52.8862 10.0245C53.22 10.3139 53.3869 10.7356 53.3869 11.2898C53.3869 11.8562 53.22 12.281 52.8862 12.5642C52.5648 12.8536 52.0827 12.9983 51.44 12.9983H50.4665V15.2887H49.697ZM56.7522 10.1168C56.1898 10.1168 55.7417 10.3262 55.4079 10.7449C55.0804 11.1574 54.9166 11.7238 54.9166 12.4442C54.9166 13.1646 55.0804 13.731 55.4079 14.1435C55.7417 14.5622 56.1898 14.7715 56.7522 14.7715C57.3085 14.7715 57.7504 14.5622 58.078 14.1435C58.4117 13.731 58.5786 13.1646 58.5786 12.4442C58.5786 11.7238 58.4117 11.1574 58.078 10.7449C57.7504 10.3262 57.3085 10.1168 56.7522 10.1168ZM56.7522 9.48883C57.5495 9.48883 58.1892 9.75666 58.6713 10.2923C59.1534 10.828 59.3944 11.5453 59.3944 12.4442C59.3944 13.3431 59.1534 14.0604 58.6713 14.5961C58.1892 15.1317 57.5495 15.3995 56.7522 15.3995C55.9426 15.3995 55.2967 15.1317 54.8146 14.5961C54.3387 14.0604 54.1007 13.3431 54.1007 12.4442C54.1007 11.5453 54.3387 10.828 54.8146 10.2923C55.2967 9.75666 55.9426 9.48883 56.7522 9.48883ZM63.3161 12.6197C63.4768 12.6751 63.6375 12.7951 63.7982 12.9798C63.9527 13.1584 64.1103 13.4078 64.271 13.7279L65.059 15.2887H64.2246L63.4922 13.8295C63.3006 13.4478 63.1183 13.1953 62.9452 13.0722C62.766 12.9429 62.5218 12.8783 62.2128 12.8783H61.3784V15.2887H60.5997V9.59042H62.3426C62.9978 9.59042 63.486 9.72587 63.8074 9.99678C64.1288 10.2738 64.2895 10.6864 64.2895 11.2343C64.2895 11.5914 64.2061 11.8901 64.0392 12.1302C63.8723 12.3641 63.6313 12.5273 63.3161 12.6197ZM62.3426 10.2277H61.3784V12.2502H62.3426C62.7196 12.2502 63.0008 12.164 63.1863 11.9916C63.3779 11.8192 63.4737 11.5668 63.4737 11.2343C63.4737 10.9019 63.3779 10.6494 63.1863 10.477C63.0008 10.3108 62.7196 10.2277 62.3426 10.2277ZM64.6882 10.2369V9.59042H69.5276V10.2369H67.4973V15.2887H66.7185V10.2369H64.6882ZM72.6241 13.183L71.5765 10.3477L70.5196 13.183H72.6241ZM68.9528 15.2887L71.1407 9.59042H72.0122L74.1909 15.2887H73.3936L72.8651 13.8295H70.2878L69.7686 15.2887H68.9528ZM75.0253 15.2887V9.59042H75.804V14.6422H78.5853V15.2887H75.0253ZM86.169 10.0337V10.8464C85.9094 10.6002 85.6313 10.4185 85.3346 10.3016C85.0441 10.1846 84.732 10.1261 84.3982 10.1261C83.7431 10.1261 83.2424 10.3231 82.8963 10.7171C82.5502 11.1174 82.3771 11.693 82.3771 12.4442C82.3771 13.1953 82.5502 13.771 82.8963 14.1712C83.2424 14.5653 83.7431 14.7623 84.3982 14.7623C84.732 14.7623 85.0441 14.7038 85.3346 14.5868C85.6313 14.4698 85.9094 14.2882 86.169 14.0419V14.8454C85.9032 15.0301 85.6189 15.1687 85.316 15.261C85.0132 15.3534 84.6918 15.3995 84.3519 15.3995C83.4866 15.3995 82.8067 15.1348 82.3122 14.6053C81.8116 14.0819 81.5613 13.3616 81.5613 12.4442C81.5613 11.533 81.8116 10.8126 82.3122 10.2831C82.8067 9.75358 83.4866 9.48883 84.3519 9.48883C84.698 9.48883 85.0194 9.53501 85.316 9.62736C85.6189 9.71356 85.9032 9.84901 86.169 10.0337ZM87.2815 13.1461V9.59042H88.0602V13.0537C88.0602 13.6633 88.1715 14.1035 88.394 14.3744C88.6165 14.6392 88.975 14.7715 89.4694 14.7715C89.9639 14.7715 90.3224 14.6392 90.5449 14.3744C90.7674 14.1035 90.8786 13.6633 90.8786 13.0537V9.59042H91.6574V13.1461C91.6574 13.8911 91.472 14.4514 91.1011 14.8269C90.7365 15.2087 90.1926 15.3995 89.4694 15.3995C88.7463 15.3995 88.1993 15.2087 87.8285 14.8269C87.4638 14.4514 87.2815 13.8911 87.2815 13.1461ZM93.1129 15.2887V9.59042H93.8824V14.6422H96.6637V15.2887H93.1129ZM95.6161 10.2369V9.59042H100.456V10.2369H98.4252V15.2887H97.6464V10.2369H95.6161ZM101.114 13.1461V9.59042H101.883V13.0537C101.883 13.6633 101.994 14.1035 102.217 14.3744C102.44 14.6392 102.801 14.7715 103.302 14.7715C103.796 14.7715 104.155 14.6392 104.377 14.3744C104.6 14.1035 104.711 13.6633 104.711 13.0537V9.59042H105.49V13.1461C105.49 13.8911 105.304 14.4514 104.933 14.8269C104.563 15.2087 104.019 15.3995 103.302 15.3995C102.579 15.3995 102.032 15.2087 101.661 14.8269C101.296 14.4514 101.114 13.8911 101.114 13.1461ZM109.652 12.6197C109.819 12.6751 109.98 12.7951 110.134 12.9798C110.289 13.1584 110.447 13.4078 110.607 13.7279L111.395 15.2887H110.561L109.828 13.8295C109.643 13.4478 109.461 13.1953 109.281 13.0722C109.102 12.9429 108.861 12.8783 108.558 12.8783H107.715V15.2887H106.936V9.59042H108.688C109.337 9.59042 109.825 9.72587 110.153 9.99678C110.474 10.2738 110.635 10.6864 110.635 11.2343C110.635 11.5914 110.549 11.8901 110.375 12.1302C110.209 12.3641 109.968 12.5273 109.652 12.6197ZM108.688 10.2277H107.715V12.2502H108.688C109.059 12.2502 109.34 12.164 109.532 11.9916C109.723 11.8192 109.819 11.5668 109.819 11.2343C109.819 10.9019 109.723 10.6494 109.532 10.477C109.34 10.3108 109.059 10.2277 108.688 10.2277ZM115.039 13.183L113.982 10.3477L112.934 13.183H115.039ZM111.367 15.2887L113.546 9.59042H114.427L116.606 15.2887H115.799L115.28 13.8295H112.702L112.183 15.2887H111.367ZM117.44 15.2887V9.59042H118.209V14.6422H121V15.2887H117.44ZM61.4155 19.38V21.3841C60.7727 20.7869 60.0867 20.3405 59.3574 20.045C58.628 19.7495 57.8555 19.6017 57.0396 19.6017C55.4203 19.6017 54.1811 20.0973 53.322 21.0886C52.469 22.0676 52.0426 23.4868 52.0426 25.3462C52.0426 27.1994 52.469 28.6217 53.322 29.613C54.1811 30.5919 55.4203 31.0814 57.0396 31.0814C57.8555 31.0814 58.628 30.9336 59.3574 30.6381C60.0867 30.3426 60.7727 29.8962 61.4155 29.2989V31.2938C60.748 31.7433 60.0403 32.0819 59.2925 32.3097C58.5446 32.5375 57.7535 32.6514 56.9191 32.6514C54.7806 32.6514 53.0964 31.9988 51.8664 30.6935C50.6365 29.3882 50.0215 27.6058 50.0215 25.3462C50.0215 23.0865 50.6365 21.3041 51.8664 19.9988C53.0964 18.6935 54.7806 18.0409 56.9191 18.0409C57.7658 18.0409 58.5631 18.1548 59.311 18.3826C60.0589 18.5981 60.7604 18.9306 61.4155 19.38ZM64.1597 27.0824V18.2902H66.0788V26.8515C66.0788 28.36 66.3538 29.4467 66.9039 30.1117C67.4478 30.7705 68.3378 31.0999 69.574 31.0999C70.7977 31.0999 71.6846 30.7705 72.2347 30.1117C72.7786 29.4467 73.0506 28.36 73.0506 26.8515V18.2902H74.9789V27.0824C74.9789 28.9172 74.5216 30.3025 73.6068 31.2384C72.6983 32.1804 71.354 32.6514 69.574 32.6514C67.7878 32.6514 66.4373 32.1804 65.5225 31.2384C64.614 30.3025 64.1597 28.9172 64.1597 27.0824ZM87.0404 18.7613V20.6176C86.3111 20.2728 85.6251 20.0142 84.9823 19.8418C84.3395 19.6694 83.7183 19.5832 83.1188 19.5832C82.0743 19.5832 81.2677 19.7864 80.6991 20.1928C80.1428 20.593 79.8647 21.1656 79.8647 21.9106C79.8647 22.5324 80.0501 23.0034 80.421 23.3236C80.798 23.6376 81.5119 23.89 82.5626 24.0809L83.7122 24.321C85.1399 24.5919 86.1906 25.0691 86.8643 25.7525C87.5442 26.4298 87.8841 27.341 87.8841 28.4862C87.8841 29.8531 87.4236 30.8875 86.5027 31.5893C85.588 32.2974 84.2437 32.6514 82.4699 32.6514C81.8023 32.6514 81.0916 32.5745 80.3375 32.4205C79.5835 32.2728 78.8016 32.0511 77.992 31.7556V29.7884C78.7707 30.2256 79.531 30.5519 80.2726 30.7674C81.0205 30.989 81.7529 31.0999 82.4699 31.0999C83.5638 31.0999 84.4075 30.8875 85.0008 30.4626C85.5942 30.0316 85.8908 29.4221 85.8908 28.634C85.8908 27.9383 85.6776 27.3964 85.2511 27.0085C84.8247 26.6207 84.1263 26.3282 83.1559 26.1312L81.9878 25.9095C80.5662 25.6263 79.5341 25.183 78.8913 24.5796C78.2547 23.9762 77.9364 23.1358 77.9364 22.0583C77.9364 20.8146 78.3752 19.8326 79.2528 19.1122C80.1367 18.398 81.3512 18.0409 82.8963 18.0409C83.5638 18.0409 84.2406 18.0994 84.9267 18.2164C85.6127 18.3395 86.3173 18.5211 87.0404 18.7613ZM101.457 19.38V21.3841C100.814 20.7869 100.125 20.3405 99.3894 20.045C98.6662 19.7495 97.8936 19.6017 97.0716 19.6017C95.4585 19.6017 94.2223 20.0973 93.3632 21.0886C92.5041 22.0676 92.0746 23.4868 92.0746 25.3462C92.0746 27.1994 92.5041 28.6217 93.3632 29.613C94.2223 30.5919 95.4585 31.0814 97.0716 31.0814C97.8936 31.0814 98.6662 30.9336 99.3894 30.6381C100.125 30.3426 100.814 29.8962 101.457 29.2989V31.2938C100.789 31.7433 100.078 32.0819 99.3245 32.3097C98.5766 32.5375 97.7886 32.6514 96.9604 32.6514C94.8219 32.6514 93.1345 31.9988 91.8984 30.6935C90.6685 29.3882 90.0535 27.6058 90.0535 25.3462C90.0535 23.0865 90.6685 21.3041 91.8984 19.9988C93.1345 18.6935 94.8219 18.0409 96.9604 18.0409C97.8071 18.0409 98.6013 18.1548 99.343 18.3826C100.097 18.5981 100.802 18.9306 101.457 19.38ZM110.144 19.5832C108.753 19.5832 107.65 20.1004 106.834 21.1348C106.018 22.163 105.61 23.5668 105.61 25.3462C105.61 27.1194 106.018 28.5232 106.834 29.5575C107.65 30.5858 108.753 31.0999 110.144 31.0999C111.534 31.0999 112.631 30.5858 113.435 29.5575C114.251 28.5232 114.659 27.1194 114.659 25.3462C114.659 23.5668 114.251 22.163 113.435 21.1348C112.631 20.1004 111.534 19.5832 110.144 19.5832ZM110.144 18.0409C112.128 18.0409 113.713 18.7028 114.9 20.0265C116.086 21.3503 116.68 23.1235 116.68 25.3462C116.68 27.5688 116.086 29.342 114.9 30.6658C113.713 31.9896 112.128 32.6514 110.144 32.6514C108.154 32.6514 106.562 31.9896 105.369 30.6658C104.189 29.3482 103.598 27.575 103.598 25.3462C103.598 23.1235 104.189 21.3503 105.369 20.0265C106.562 18.7028 108.154 18.0409 110.144 18.0409Z" fill="black"/>
</svg>
