<svg width="78" height="79" viewBox="0 0 78 79" fill="none" xmlns="http://www.w3.org/2000/svg">
<g clip-path="url(#clip0_1528_6068)">
<path d="M27.512 37.3804V59.551H35.1V36.8717C35.1 33.7347 36.4141 32.1662 39.0424 32.1662C41.6283 32.1662 42.9424 33.7347 42.9424 36.8717V59.551H50.5304V37.3804C50.5304 33.5227 49.5131 30.513 47.4783 28.4358C45.4435 26.3162 42.6033 25.2988 38.8728 25.2988C35.1848 25.2988 32.3446 26.3586 30.3946 28.4358C28.487 30.5554 27.512 33.5227 27.512 37.3804Z" fill="black"/>
<path fill-rule="evenodd" clip-rule="evenodd" d="M46.8424 74.5574V67.0117H31.1577V74.5574H46.8424Z" fill="#FF3938"/>
<path fill-rule="evenodd" clip-rule="evenodd" d="M51.2087 25.2985L45.1468 20.7627L54.5152 8.21484L60.5772 12.7507L51.2087 25.2985Z" fill="#FFBB02"/>
<path fill-rule="evenodd" clip-rule="evenodd" d="M35.2272 20.0848H42.7728V4.44238H35.2272V20.0848Z" fill="#FF3938"/>
<path fill-rule="evenodd" clip-rule="evenodd" d="M26.7913 25.2985L32.8533 20.7627L23.5272 8.21484L17.4229 12.7507L26.7913 25.2985Z" fill="#FFBB02"/>
</g>
<defs>
<clipPath id="clip0_1528_6068">
<rect width="78" height="78" fill="white" transform="translate(0 0.5)"/>
</clipPath>
</defs>
</svg>
