<svg width="83" height="94" viewBox="0 0 83 94" fill="none" xmlns="http://www.w3.org/2000/svg">
<path d="M4.45703 89.2004V83.9087C4.45703 74.0846 8.35962 64.6629 15.3063 57.7163C22.2529 50.7696 31.6746 46.867 41.4987 46.867M41.4987 46.867C51.3228 46.867 60.7445 50.7696 67.6911 57.7163C74.6378 64.6629 78.5404 74.0846 78.5404 83.9087V89.2004M41.4987 46.867C47.1124 46.867 52.4963 44.637 56.4658 40.6675C60.4353 36.6979 62.6654 31.3141 62.6654 25.7004C62.6654 20.0866 60.4353 14.7028 56.4658 10.7333C52.4963 6.76374 47.1124 4.53369 41.4987 4.53369C35.885 4.53369 30.5011 6.76374 26.5316 10.7333C22.5621 14.7028 20.332 20.0866 20.332 25.7004C20.332 31.3141 22.5621 36.6979 26.5316 40.6675C30.5011 44.637 35.885 46.867 41.4987 46.867Z" stroke="#353333" stroke-width="7.77551" stroke-linecap="round" stroke-linejoin="round"/>
</svg>
