<?xml version="1.0" encoding="UTF-8"?>
<svg id="_Слой_1" data-name="Слой 1" xmlns="http://www.w3.org/2000/svg" viewBox="0 0 1920 1080">
  <defs>
    <style>
      .cls-1 {
        fill: #f7ed3c;
      }

      .cls-2 {
        fill: #959595;
      }

      .cls-3 {
        fill: #8ed238;
      }
    </style>
  </defs>
  <rect class="cls-2" width="1920" height="1080"/>
  <g>
    <path class="cls-3" d="M442.67,457.24c0-3.3,2.53-5.83,5.83-5.83h23.79c3.3,0,5.83,2.53,5.83,5.83v130.07c0,3.3,2.53,5.83,5.83,5.83h94.65c3.28,0,5.83-2.53,5.83-5.83v-130.07c0-3.3,2.53-5.83,5.83-5.83h23.79c3.3,0,5.83,2.53,5.83,5.83v135.9c0,19.48-15.94,35.42-35.42,35.42h-106.28c-19.48,0-35.42-15.94-35.42-35.42v-135.9h-.07Z"/>
    <path class="cls-3" d="M812.42,457.27v100.45c0,19.48-15.94,35.42-35.42,35.42h-29.61c-3.3,0-5.83,2.53-5.83,5.83v23.79c0,3.3-2.53,5.83-5.83,5.83h-23.79c-3.3,0-5.83-2.53-5.83-5.83v-23.79c0-3.3-2.52-5.83-5.82-5.83h-29.62c-19.48,0-35.42-15.94-35.42-35.42v-100.45c0-3.3,2.53-5.83,5.83-5.83h23.76c3.3,0,5.83,2.53,5.83,5.83v94.65c0,3.3,2.53,5.82,5.83,5.82h94.65c3.3,0,5.83-2.52,5.83-5.82v-94.65c0-3.3,2.53-5.83,5.83-5.83h23.78c3.3,0,5.83,2.53,5.83,5.83Z"/>
    <path class="cls-3" d="M869.05,486.86c-3.3,0-5.83,2.53-5.83,5.83v59.21c0,3.3,2.53,5.83,5.83,5.83h94.65c3.3,0,5.83-2.53,5.83-5.83v-59.21c0-3.3-2.53-5.83-5.83-5.83h-94.65Zm-41.25,0c0-19.48,15.94-35.42,35.42-35.42h106.28c19.48,0,35.42,15.94,35.42,35.42v135.9c0,3.3-2.53,5.83-5.83,5.83h-23.79c-3.3,0-5.83-2.53-5.83-5.83v-23.79c0-3.3-2.53-5.83-5.83-5.83h-94.65c-3.3,0-5.83,2.53-5.83,5.83v23.79c0,3.3-2.53,5.83-5.83,5.83h-23.79c-3.3,0-5.83-2.53-5.83-5.83v-135.9h.07Z"/>
    <rect class="cls-3" x="1012.51" y="593.14" width="35.44" height="35.44" rx="5.83" ry="5.83"/>
    <path class="cls-1" d="M1144.5,540.7c-1.78-4.45-4.45-7.93-8.03-10.44-3.58-2.53-8.07-3.77-13.41-3.77-8.03,0-14.26,2.81-18.66,8.45-4.4,5.62-6.6,12.74-6.6,21.31,0,5.69,1.1,10.74,3.3,15.19,2.2,4.45,5.2,7.94,9.01,10.44,3.78,2.52,8.1,3.76,12.92,3.77h.03c5.45,0,9.98-1.34,13.55-4.03,3.58-2.66,6.25-6.25,7.96-10.69,1.71-4.45,2.58-9.34,2.58-14.71,0-5.9-.89-11.07-2.65-15.52Zm0,0c-1.78-4.45-4.45-7.93-8.03-10.44-3.58-2.53-8.07-3.77-13.41-3.77-8.03,0-14.26,2.81-18.66,8.45-4.4,5.62-6.6,12.74-6.6,21.31,0,5.69,1.1,10.74,3.3,15.19,2.2,4.45,5.2,7.94,9.01,10.44,3.78,2.52,8.1,3.76,12.92,3.77h.03c5.45,0,9.98-1.34,13.55-4.03,3.58-2.66,6.25-6.25,7.96-10.69,1.71-4.45,2.58-9.34,2.58-14.71,0-5.9-.89-11.07-2.65-15.52Zm0,0c-1.78-4.45-4.45-7.93-8.03-10.44-3.58-2.53-8.07-3.77-13.41-3.77-8.03,0-14.26,2.81-18.66,8.45-4.4,5.62-6.6,12.74-6.6,21.31,0,5.69,1.1,10.74,3.3,15.19,2.2,4.45,5.2,7.94,9.01,10.44,3.78,2.52,8.1,3.76,12.92,3.77h.03c5.45,0,9.98-1.34,13.55-4.03,3.58-2.66,6.25-6.25,7.96-10.69,1.71-4.45,2.58-9.34,2.58-14.71,0-5.9-.89-11.07-2.65-15.52Zm0,0c-1.78-4.45-4.45-7.93-8.03-10.44-3.58-2.53-8.07-3.77-13.41-3.77-8.03,0-14.26,2.81-18.66,8.45-4.4,5.62-6.6,12.74-6.6,21.31,0,5.69,1.1,10.74,3.3,15.19,2.2,4.45,5.2,7.94,9.01,10.44,3.78,2.52,8.1,3.76,12.92,3.77h.03c5.45,0,9.98-1.34,13.55-4.03,3.58-2.66,6.25-6.25,7.96-10.69,1.71-4.45,2.58-9.34,2.58-14.71,0-5.9-.89-11.07-2.65-15.52Zm0,0c-1.78-4.45-4.45-7.93-8.03-10.44-3.58-2.53-8.07-3.77-13.41-3.77-8.03,0-14.26,2.81-18.66,8.45-4.4,5.62-6.6,12.74-6.6,21.31,0,5.69,1.1,10.74,3.3,15.19,2.2,4.45,5.2,7.94,9.01,10.44,3.78,2.52,8.1,3.76,12.92,3.77h.03c5.45,0,9.98-1.34,13.55-4.03,3.58-2.66,6.25-6.25,7.96-10.69,1.71-4.45,2.58-9.34,2.58-14.71,0-5.9-.89-11.07-2.65-15.52Zm108.21-3.86c-1.88-3.37-4.38-5.95-7.47-7.73-3.12-1.75-6.44-2.64-9.98-2.64s-6.85,.89-9.97,2.64c-3.11,1.78-5.62,4.31-7.56,7.64-1.92,3.32-2.9,7.44-2.9,12.38s.96,8.9,2.9,12.22c1.92,3.32,4.45,5.85,7.56,7.56,3.12,1.71,6.44,2.58,9.97,2.58s6.84-.87,9.88-2.58c3.05-1.71,5.55-4.24,7.47-7.56,1.92-3.32,2.9-7.4,2.9-12.22s-.93-8.92-2.8-12.29Zm0,0c-1.88-3.37-4.38-5.95-7.47-7.73-3.12-1.75-6.44-2.64-9.98-2.64s-6.85,.89-9.97,2.64c-3.11,1.78-5.62,4.31-7.56,7.64-1.92,3.32-2.9,7.44-2.9,12.38s.96,8.9,2.9,12.22c1.92,3.32,4.45,5.85,7.56,7.56,3.12,1.71,6.44,2.58,9.97,2.58s6.84-.87,9.88-2.58c3.05-1.71,5.55-4.24,7.47-7.56,1.92-3.32,2.9-7.4,2.9-12.22s-.93-8.92-2.8-12.29Zm-108.21,3.86c-1.78-4.45-4.45-7.93-8.03-10.44-3.58-2.53-8.07-3.77-13.41-3.77-8.03,0-14.26,2.81-18.66,8.45-4.4,5.62-6.6,12.74-6.6,21.31,0,5.69,1.1,10.74,3.3,15.19,2.2,4.45,5.2,7.94,9.01,10.44,3.78,2.52,8.1,3.76,12.92,3.77h.03c5.45,0,9.98-1.34,13.55-4.03,3.58-2.66,6.25-6.25,7.96-10.69,1.71-4.45,2.58-9.34,2.58-14.71,0-5.9-.89-11.07-2.65-15.52Zm0,0c-1.78-4.45-4.45-7.93-8.03-10.44-3.58-2.53-8.07-3.77-13.41-3.77-8.03,0-14.26,2.81-18.66,8.45-4.4,5.62-6.6,12.74-6.6,21.31,0,5.69,1.1,10.74,3.3,15.19,2.2,4.45,5.2,7.94,9.01,10.44,3.78,2.52,8.1,3.76,12.92,3.77h.03c5.45,0,9.98-1.34,13.55-4.03,3.58-2.66,6.25-6.25,7.96-10.69,1.71-4.45,2.58-9.34,2.58-14.71,0-5.9-.89-11.07-2.65-15.52Zm108.21-3.86c-1.88-3.37-4.38-5.95-7.47-7.73-3.12-1.75-6.44-2.64-9.98-2.64s-6.85,.89-9.97,2.64c-3.11,1.78-5.62,4.31-7.56,7.64-1.92,3.32-2.9,7.44-2.9,12.38s.96,8.9,2.9,12.22c1.92,3.32,4.45,5.85,7.56,7.56,3.12,1.71,6.44,2.58,9.97,2.58s6.84-.87,9.88-2.58c3.05-1.71,5.55-4.24,7.47-7.56,1.92-3.32,2.9-7.4,2.9-12.22s-.93-8.92-2.8-12.29Zm0,0c-1.88-3.37-4.38-5.95-7.47-7.73-3.12-1.75-6.44-2.64-9.98-2.64s-6.85,.89-9.97,2.64c-3.11,1.78-5.62,4.31-7.56,7.64-1.92,3.32-2.9,7.44-2.9,12.38s.96,8.9,2.9,12.22c1.92,3.32,4.45,5.85,7.56,7.56,3.12,1.71,6.44,2.58,9.97,2.58s6.84-.87,9.88-2.58c3.05-1.71,5.55-4.24,7.47-7.56,1.92-3.32,2.9-7.4,2.9-12.22s-.93-8.92-2.8-12.29Zm-108.21,3.86c-1.78-4.45-4.45-7.93-8.03-10.44-3.58-2.53-8.07-3.77-13.41-3.77-8.03,0-14.26,2.81-18.66,8.45-4.4,5.62-6.6,12.74-6.6,21.31,0,5.69,1.1,10.74,3.3,15.19,2.2,4.45,5.2,7.94,9.01,10.44,3.78,2.52,8.1,3.76,12.92,3.77h.03c5.45,0,9.98-1.34,13.55-4.03,3.58-2.66,6.25-6.25,7.96-10.69,1.71-4.45,2.58-9.34,2.58-14.71,0-5.9-.89-11.07-2.65-15.52Zm0,0c-1.78-4.45-4.45-7.93-8.03-10.44-3.58-2.53-8.07-3.77-13.41-3.77-8.03,0-14.26,2.81-18.66,8.45-4.4,5.62-6.6,12.74-6.6,21.31,0,5.69,1.1,10.74,3.3,15.19,2.2,4.45,5.2,7.94,9.01,10.44,3.78,2.52,8.1,3.76,12.92,3.77h.03c5.45,0,9.98-1.34,13.55-4.03,3.58-2.66,6.25-6.25,7.96-10.69,1.71-4.45,2.58-9.34,2.58-14.71,0-5.9-.89-11.07-2.65-15.52Zm108.21-3.86c-1.88-3.37-4.38-5.95-7.47-7.73-3.12-1.75-6.44-2.64-9.98-2.64s-6.85,.89-9.97,2.64c-3.11,1.78-5.62,4.31-7.56,7.64-1.92,3.32-2.9,7.44-2.9,12.38s.96,8.9,2.9,12.22c1.92,3.32,4.45,5.85,7.56,7.56,3.12,1.71,6.44,2.58,9.97,2.58s6.84-.87,9.88-2.58c3.05-1.71,5.55-4.24,7.47-7.56,1.92-3.32,2.9-7.4,2.9-12.22s-.93-8.92-2.8-12.29Zm0,0c-1.88-3.37-4.38-5.95-7.47-7.73-3.12-1.75-6.44-2.64-9.98-2.64s-6.85,.89-9.97,2.64c-3.11,1.78-5.62,4.31-7.56,7.64-1.92,3.32-2.9,7.44-2.9,12.38s.96,8.9,2.9,12.22c1.92,3.32,4.45,5.85,7.56,7.56,3.12,1.71,6.44,2.58,9.97,2.58s6.84-.87,9.88-2.58c3.05-1.71,5.55-4.24,7.47-7.56,1.92-3.32,2.9-7.4,2.9-12.22s-.93-8.92-2.8-12.29Zm-108.21,3.86c-1.78-4.45-4.45-7.93-8.03-10.44-3.58-2.53-8.07-3.77-13.41-3.77-8.03,0-14.26,2.81-18.66,8.45-4.4,5.62-6.6,12.74-6.6,21.31,0,5.69,1.1,10.74,3.3,15.19,2.2,4.45,5.2,7.94,9.01,10.44,3.78,2.52,8.1,3.76,12.92,3.77h.03c5.45,0,9.98-1.34,13.55-4.03,3.58-2.66,6.25-6.25,7.96-10.69,1.71-4.45,2.58-9.34,2.58-14.71,0-5.9-.89-11.07-2.65-15.52Zm0,0c-1.78-4.45-4.45-7.93-8.03-10.44-3.58-2.53-8.07-3.77-13.41-3.77-8.03,0-14.26,2.81-18.66,8.45-4.4,5.62-6.6,12.74-6.6,21.31,0,5.69,1.1,10.74,3.3,15.19,2.2,4.45,5.2,7.94,9.01,10.44,3.78,2.52,8.1,3.76,12.92,3.77h.03c5.45,0,9.98-1.34,13.55-4.03,3.58-2.66,6.25-6.25,7.96-10.69,1.71-4.45,2.58-9.34,2.58-14.71,0-5.9-.89-11.07-2.65-15.52Zm108.21-3.86c-1.88-3.37-4.38-5.95-7.47-7.73-3.12-1.75-6.44-2.64-9.98-2.64s-6.85,.89-9.97,2.64c-3.11,1.78-5.62,4.31-7.56,7.64-1.92,3.32-2.9,7.44-2.9,12.38s.96,8.9,2.9,12.22c1.92,3.32,4.45,5.85,7.56,7.56,3.12,1.71,6.44,2.58,9.97,2.58s6.84-.87,9.88-2.58c3.05-1.71,5.55-4.24,7.47-7.56,1.92-3.32,2.9-7.4,2.9-12.22s-.93-8.92-2.8-12.29Zm0,0c-1.88-3.37-4.38-5.95-7.47-7.73-3.12-1.75-6.44-2.64-9.98-2.64s-6.85,.89-9.97,2.64c-3.11,1.78-5.62,4.31-7.56,7.64-1.92,3.32-2.9,7.44-2.9,12.38s.96,8.9,2.9,12.22c1.92,3.32,4.45,5.85,7.56,7.56,3.12,1.71,6.44,2.58,9.97,2.58s6.84-.87,9.88-2.58c3.05-1.71,5.55-4.24,7.47-7.56,1.92-3.32,2.9-7.4,2.9-12.22s-.93-8.92-2.8-12.29Zm-108.21,3.86c-1.78-4.45-4.45-7.93-8.03-10.44-3.58-2.53-8.07-3.77-13.41-3.77-8.03,0-14.26,2.81-18.66,8.45-4.4,5.62-6.6,12.74-6.6,21.31,0,5.69,1.1,10.74,3.3,15.19,2.2,4.45,5.2,7.94,9.01,10.44,3.78,2.52,8.1,3.76,12.92,3.77h.03c5.45,0,9.98-1.34,13.55-4.03,3.58-2.66,6.25-6.25,7.96-10.69,1.71-4.45,2.58-9.34,2.58-14.71,0-5.9-.89-11.07-2.65-15.52Zm0,0c-1.78-4.45-4.45-7.93-8.03-10.44-3.58-2.53-8.07-3.77-13.41-3.77-8.03,0-14.26,2.81-18.66,8.45-4.4,5.62-6.6,12.74-6.6,21.31,0,5.69,1.1,10.74,3.3,15.19,2.2,4.45,5.2,7.94,9.01,10.44,3.78,2.52,8.1,3.76,12.92,3.77h.03c5.45,0,9.98-1.34,13.55-4.03,3.58-2.66,6.25-6.25,7.96-10.69,1.71-4.45,2.58-9.34,2.58-14.71,0-5.9-.89-11.07-2.65-15.52Zm108.21-3.86c-1.88-3.37-4.38-5.95-7.47-7.73-3.12-1.75-6.44-2.64-9.98-2.64s-6.85,.89-9.97,2.64c-3.11,1.78-5.62,4.31-7.56,7.64-1.92,3.32-2.9,7.44-2.9,12.38s.96,8.9,2.9,12.22c1.92,3.32,4.45,5.85,7.56,7.56,3.12,1.71,6.44,2.58,9.97,2.58s6.84-.87,9.88-2.58c3.05-1.71,5.55-4.24,7.47-7.56,1.92-3.32,2.9-7.4,2.9-12.22s-.93-8.92-2.8-12.29Zm157.71,3.86c-1.78-4.45-4.44-7.93-8.03-10.44-3.58-2.53-8.07-3.77-13.41-3.77-8.03,0-14.26,2.81-18.66,8.45-4.4,5.62-6.6,12.74-6.6,21.31,0,5.68,1.1,10.74,3.3,15.19,2.2,4.45,5.2,7.94,9.01,10.44,3.79,2.53,8.12,3.77,12.93,3.77h.02c5.44,0,9.97-1.33,13.55-4.03,3.59-2.67,6.26-6.25,7.96-10.7,1.71-4.44,2.58-9.34,2.58-14.7,0-5.9-.89-11.07-2.65-15.52Zm0,0c-1.78-4.45-4.44-7.93-8.03-10.44-3.58-2.53-8.07-3.77-13.41-3.77-8.03,0-14.26,2.81-18.66,8.45-4.4,5.62-6.6,12.74-6.6,21.31,0,5.68,1.1,10.74,3.3,15.19,2.2,4.45,5.2,7.94,9.01,10.44,3.79,2.53,8.12,3.77,12.93,3.77h.02c5.44,0,9.97-1.33,13.55-4.03,3.59-2.67,6.26-6.25,7.96-10.7,1.71-4.44,2.58-9.34,2.58-14.7,0-5.9-.89-11.07-2.65-15.52Zm-157.71-3.86c-1.88-3.37-4.38-5.95-7.47-7.73-3.12-1.75-6.44-2.64-9.98-2.64s-6.85,.89-9.97,2.64c-3.11,1.78-5.62,4.31-7.56,7.64-1.92,3.32-2.9,7.44-2.9,12.38s.96,8.9,2.9,12.22c1.92,3.32,4.45,5.85,7.56,7.56,3.12,1.71,6.44,2.58,9.97,2.58s6.84-.87,9.88-2.58c3.05-1.71,5.55-4.24,7.47-7.56,1.92-3.32,2.9-7.4,2.9-12.22s-.93-8.92-2.8-12.29Zm-108.21,3.86c-1.78-4.45-4.45-7.93-8.03-10.44-3.58-2.53-8.07-3.77-13.41-3.77-8.03,0-14.26,2.81-18.66,8.45-4.4,5.62-6.6,12.74-6.6,21.31,0,5.69,1.1,10.74,3.3,15.19,2.2,4.45,5.2,7.94,9.01,10.44,3.78,2.52,8.1,3.76,12.92,3.77h.03c5.45,0,9.98-1.34,13.55-4.03,3.58-2.66,6.25-6.25,7.96-10.69,1.71-4.45,2.58-9.34,2.58-14.71,0-5.9-.89-11.07-2.65-15.52Zm0,0c-1.78-4.45-4.45-7.93-8.03-10.44-3.58-2.53-8.07-3.77-13.41-3.77-8.03,0-14.26,2.81-18.66,8.45-4.4,5.62-6.6,12.74-6.6,21.31,0,5.69,1.1,10.74,3.3,15.19,2.2,4.45,5.2,7.94,9.01,10.44,3.78,2.52,8.1,3.76,12.92,3.77h.03c5.45,0,9.98-1.34,13.55-4.03,3.58-2.66,6.25-6.25,7.96-10.69,1.71-4.45,2.58-9.34,2.58-14.71,0-5.9-.89-11.07-2.65-15.52Zm108.21-3.86c-1.88-3.37-4.38-5.95-7.47-7.73-3.12-1.75-6.44-2.64-9.98-2.64s-6.85,.89-9.97,2.64c-3.11,1.78-5.62,4.31-7.56,7.64-1.92,3.32-2.9,7.44-2.9,12.38s.96,8.9,2.9,12.22c1.92,3.32,4.45,5.85,7.56,7.56,3.12,1.71,6.44,2.58,9.97,2.58s6.84-.87,9.88-2.58c3.05-1.71,5.55-4.24,7.47-7.56,1.92-3.32,2.9-7.4,2.9-12.22s-.93-8.92-2.8-12.29Zm157.71,3.86c-1.78-4.45-4.44-7.93-8.03-10.44-3.58-2.53-8.07-3.77-13.41-3.77-8.03,0-14.26,2.81-18.66,8.45-4.4,5.62-6.6,12.74-6.6,21.31,0,5.68,1.1,10.74,3.3,15.19,2.2,4.45,5.2,7.94,9.01,10.44,3.79,2.53,8.12,3.77,12.93,3.77h.02c5.44,0,9.97-1.33,13.55-4.03,3.59-2.67,6.26-6.25,7.96-10.7,1.71-4.44,2.58-9.34,2.58-14.7,0-5.9-.89-11.07-2.65-15.52Zm0,0c-1.78-4.45-4.44-7.93-8.03-10.44-3.58-2.53-8.07-3.77-13.41-3.77-8.03,0-14.26,2.81-18.66,8.45-4.4,5.62-6.6,12.74-6.6,21.31,0,5.68,1.1,10.74,3.3,15.19,2.2,4.45,5.2,7.94,9.01,10.44,3.79,2.53,8.12,3.77,12.93,3.77h.02c5.44,0,9.97-1.33,13.55-4.03,3.59-2.67,6.26-6.25,7.96-10.7,1.71-4.44,2.58-9.34,2.58-14.7,0-5.9-.89-11.07-2.65-15.52Zm-157.71-3.86c-1.88-3.37-4.38-5.95-7.47-7.73-3.12-1.75-6.44-2.64-9.98-2.64s-6.85,.89-9.97,2.64c-3.11,1.78-5.62,4.31-7.56,7.64-1.92,3.32-2.9,7.44-2.9,12.38s.96,8.9,2.9,12.22c1.92,3.32,4.45,5.85,7.56,7.56,3.12,1.71,6.44,2.58,9.97,2.58s6.84-.87,9.88-2.58c3.05-1.71,5.55-4.24,7.47-7.56,1.92-3.32,2.9-7.4,2.9-12.22s-.93-8.92-2.8-12.29Zm-108.21,3.86c-1.78-4.45-4.45-7.93-8.03-10.44-3.58-2.53-8.07-3.77-13.41-3.77-8.03,0-14.26,2.81-18.66,8.45-4.4,5.62-6.6,12.74-6.6,21.31,0,5.69,1.1,10.74,3.3,15.19,2.2,4.45,5.2,7.94,9.01,10.44,3.78,2.52,8.1,3.76,12.92,3.77h.03c5.45,0,9.98-1.34,13.55-4.03,3.58-2.66,6.25-6.25,7.96-10.69,1.71-4.45,2.58-9.34,2.58-14.71,0-5.9-.89-11.07-2.65-15.52Zm0,0c-1.78-4.45-4.45-7.93-8.03-10.44-3.58-2.53-8.07-3.77-13.41-3.77-8.03,0-14.26,2.81-18.66,8.45-4.4,5.62-6.6,12.74-6.6,21.31,0,5.69,1.1,10.74,3.3,15.19,2.2,4.45,5.2,7.94,9.01,10.44,3.78,2.52,8.1,3.76,12.92,3.77h.03c5.45,0,9.98-1.34,13.55-4.03,3.58-2.66,6.25-6.25,7.96-10.69,1.71-4.45,2.58-9.34,2.58-14.71,0-5.9-.89-11.07-2.65-15.52Zm108.21-3.86c-1.88-3.37-4.38-5.95-7.47-7.73-3.12-1.75-6.44-2.64-9.98-2.64s-6.85,.89-9.97,2.64c-3.11,1.78-5.62,4.31-7.56,7.64-1.92,3.32-2.9,7.44-2.9,12.38s.96,8.9,2.9,12.22c1.92,3.32,4.45,5.85,7.56,7.56,3.12,1.71,6.44,2.58,9.97,2.58s6.84-.87,9.88-2.58c3.05-1.71,5.55-4.24,7.47-7.56,1.92-3.32,2.9-7.4,2.9-12.22s-.93-8.92-2.8-12.29Zm157.71,3.86c-1.78-4.45-4.44-7.93-8.03-10.44-3.58-2.53-8.07-3.77-13.41-3.77-8.03,0-14.26,2.81-18.66,8.45-4.4,5.62-6.6,12.74-6.6,21.31,0,5.68,1.1,10.74,3.3,15.19,2.2,4.45,5.2,7.94,9.01,10.44,3.79,2.53,8.12,3.77,12.93,3.77h.02c5.44,0,9.97-1.33,13.55-4.03,3.59-2.67,6.26-6.25,7.96-10.7,1.71-4.44,2.58-9.34,2.58-14.7,0-5.9-.89-11.07-2.65-15.52Zm0,0c-1.78-4.45-4.44-7.93-8.03-10.44-3.58-2.53-8.07-3.77-13.41-3.77-8.03,0-14.26,2.81-18.66,8.45-4.4,5.62-6.6,12.74-6.6,21.31,0,5.68,1.1,10.74,3.3,15.19,2.2,4.45,5.2,7.94,9.01,10.44,3.79,2.53,8.12,3.77,12.93,3.77h.02c5.44,0,9.97-1.33,13.55-4.03,3.59-2.67,6.26-6.25,7.96-10.7,1.71-4.44,2.58-9.34,2.58-14.7,0-5.9-.89-11.07-2.65-15.52Zm-157.71-3.86c-1.88-3.37-4.38-5.95-7.47-7.73-3.12-1.75-6.44-2.64-9.98-2.64s-6.85,.89-9.97,2.64c-3.11,1.78-5.62,4.31-7.56,7.64-1.92,3.32-2.9,7.44-2.9,12.38s.96,8.9,2.9,12.22c1.92,3.32,4.45,5.85,7.56,7.56,3.12,1.71,6.44,2.58,9.97,2.58s6.84-.87,9.88-2.58c3.05-1.71,5.55-4.24,7.47-7.56,1.92-3.32,2.9-7.4,2.9-12.22s-.93-8.92-2.8-12.29Zm-108.21,3.86c-1.78-4.45-4.45-7.93-8.03-10.44-3.58-2.53-8.07-3.77-13.41-3.77-8.03,0-14.26,2.81-18.66,8.45-4.4,5.62-6.6,12.74-6.6,21.31,0,5.69,1.1,10.74,3.3,15.19,2.2,4.45,5.2,7.94,9.01,10.44,3.78,2.52,8.1,3.76,12.92,3.77h.03c5.45,0,9.98-1.34,13.55-4.03,3.58-2.66,6.25-6.25,7.96-10.69,1.71-4.45,2.58-9.34,2.58-14.71,0-5.9-.89-11.07-2.65-15.52Zm317.41-88.31h-383.33c-8.51,0-15.42,6.87-15.42,15.36v145.39c0,8.49,6.91,15.37,15.42,15.37h383.33c8.52,0,15.42-6.88,15.42-15.37v-145.39c0-8.49-6.9-15.36-15.42-15.36Zm-301.91,143.87h-11.73c-.21-2.37-.47-5.15-.72-8.36-.26-3.21-.4-5.78-.4-7.73v-9.02c-.89,4.19-2.26,8.19-4.1,12.04-2.08,4.33-5.01,7.89-8.76,10.61-3.74,2.74-8.56,4.1-14.46,4.1v-.03c-6.44,0-12.29-1.8-17.61-5.38-5.31-3.58-9.5-8.52-12.62-14.8-3.11-6.27-4.65-13.41-4.65-21.47s1.49-15.21,4.49-21.53,7.12-11.31,12.38-14.96c5.25-3.66,11.26-5.46,18.01-5.46,5.99,0,10.91,1.1,14.7,3.3,3.79,2.2,6.72,5.22,8.75,9.09,1.74,3.29,3.04,7.01,3.87,11.16v-54.1h12.85v112.54Zm30.88,.02h-12.85v-80.39h12.85v80.39Zm1.94-96.97h-16.71v-15.59h16.71v15.59Zm85.03,30.39c-4.61,0-9.2-.87-13.74-2.58-3.28-1.23-6.21-2.49-8.79-3.78,2.21,1.51,4.13,3.21,5.74,5.07,2.41,2.79,4.24,5.92,5.46,9.41,1.24,3.49,1.85,7.26,1.85,11.33,0,7.19-1.52,13.35-4.59,18.5-3.04,5.15-7.09,9.08-12.13,11.82-5.03,2.74-10.51,4.1-16.39,4.1v-.03h-.02c-5.78,.33-10.25,.92-13.41,1.78-3.16,.87-4.76,2.67-4.76,5.46,0,1.61,.61,2.92,1.85,3.93,1.24,1.03,3.09,1.52,5.55,1.52h16.72c5.57,0,10.67,.77,15.26,2.34,4.61,1.55,8.31,4.19,11.1,7.89,2.78,3.7,4.19,8.76,4.19,15.2v6.74h-12.83v-3.54c0-5.69-1.48-9.81-4.43-12.38-2.95-2.58-7.37-3.86-13.27-3.86h-16.08c-3.54,0-6.63-.31-9.25-.89-2.62-.59-4.8-1.48-6.51-2.65s-2.99-2.62-3.86-4.33-1.29-3.65-1.29-5.78c0-4.08,1.24-7.17,3.7-9.25,2.46-2.08,5.53-3.39,9.15-3.93,2.18-.32,4.29-.45,6.35-.38-1.46-.54-2.9-1.2-4.31-1.96-5.1-2.74-9.22-6.68-12.38-11.83-3.16-5.15-4.76-11.3-4.76-18.49s1.55-13.37,4.66-18.56c3.12-5.2,7.19-9.23,12.22-12.06,5.04-2.83,10.52-4.26,16.39-4.26,1.83,0,3.56,.14,5.22,.4,1.66,.28,3.23,.68,4.75,1.21h32.64v13.84Zm7.91-45.98h16.72v15.59h-16.72v-15.59Zm14.77,112.56h-12.85v-80.39h12.85v80.39Zm47.6-68.36h-17.21v68.31h-12.85v-68.31h-17.21v-12.06h17.21v-20.9h12.85v20.9h17.21v12.06Zm77.79,68.36h-11.73c-.32-3.86-.58-7.07-.79-9.65-.21-2.57-.33-4.7-.33-6.43v-9.15c-.88,4.22-2.26,8.26-4.12,12.14-2.08,4.33-5.01,7.89-8.76,10.61-3.74,2.74-8.57,4.09-14.46,4.09l.02-.02c-6.32,0-12.13-1.8-17.44-5.38-5.32-3.59-9.55-8.53-12.71-14.8-3.16-6.27-4.76-13.41-4.76-21.47s1.62-15.21,4.83-21.54c3.2-6.32,7.58-11.3,13.11-14.95,5.52-3.66,11.7-5.46,18.56-5.46,7.49,0,13.2,1.9,17.11,5.71,3.91,3.8,6.61,8.88,8.03,15.2,.22,.93,.41,1.88,.59,2.84v-22.13h12.85v80.39Zm28.94-.02h-12.85v-112.54h12.85v112.54Zm-52.47-66c-3.58-2.53-8.07-3.77-13.41-3.77-8.03,0-14.26,2.81-18.66,8.45-4.4,5.62-6.6,12.74-6.6,21.31,0,5.68,1.1,10.74,3.3,15.19,2.2,4.45,5.2,7.94,9.01,10.44,3.79,2.53,8.12,3.77,12.93,3.77h.02c5.44,0,9.97-1.33,13.55-4.03,3.59-2.67,6.26-6.25,7.96-10.7,1.71-4.44,2.58-9.34,2.58-14.7,0-5.9-.89-11.07-2.65-15.52-1.78-4.45-4.44-7.93-8.03-10.44Zm-177.1-1.15c-3.11,1.78-5.62,4.31-7.56,7.64-1.92,3.32-2.9,7.44-2.9,12.38s.96,8.9,2.9,12.22c1.92,3.32,4.45,5.85,7.56,7.56,3.12,1.71,6.44,2.58,9.97,2.58s6.84-.87,9.88-2.58c3.05-1.71,5.55-4.24,7.47-7.56,1.92-3.32,2.9-7.4,2.9-12.22s-.93-8.92-2.8-12.29c-1.88-3.37-4.38-5.95-7.47-7.73-3.12-1.75-6.44-2.64-9.98-2.64s-6.85,.89-9.97,2.64Zm-88.82,1.15c-3.58-2.53-8.07-3.77-13.41-3.77-8.03,0-14.26,2.81-18.66,8.45-4.4,5.62-6.6,12.74-6.6,21.31,0,5.69,1.1,10.74,3.3,15.19,2.2,4.45,5.2,7.94,9.01,10.44,3.78,2.52,8.1,3.76,12.92,3.77h.03c5.45,0,9.98-1.34,13.55-4.03,3.58-2.66,6.25-6.25,7.96-10.69,1.71-4.45,2.58-9.34,2.58-14.71,0-5.9-.89-11.07-2.65-15.52-1.78-4.45-4.45-7.93-8.03-10.44Zm8.03,10.44c-1.78-4.45-4.45-7.93-8.03-10.44-3.58-2.53-8.07-3.77-13.41-3.77-8.03,0-14.26,2.81-18.66,8.45-4.4,5.62-6.6,12.74-6.6,21.31,0,5.69,1.1,10.74,3.3,15.19,2.2,4.45,5.2,7.94,9.01,10.44,3.78,2.52,8.1,3.76,12.92,3.77h.03c5.45,0,9.98-1.34,13.55-4.03,3.58-2.66,6.25-6.25,7.96-10.69,1.71-4.45,2.58-9.34,2.58-14.71,0-5.9-.89-11.07-2.65-15.52Zm108.21-3.86c-1.88-3.37-4.38-5.95-7.47-7.73-3.12-1.75-6.44-2.64-9.98-2.64s-6.85,.89-9.97,2.64c-3.11,1.78-5.62,4.31-7.56,7.64-1.92,3.32-2.9,7.44-2.9,12.38s.96,8.9,2.9,12.22c1.92,3.32,4.45,5.85,7.56,7.56,3.12,1.71,6.44,2.58,9.97,2.58s6.84-.87,9.88-2.58c3.05-1.71,5.55-4.24,7.47-7.56,1.92-3.32,2.9-7.4,2.9-12.22s-.93-8.92-2.8-12.29Zm157.71,3.86c-1.78-4.45-4.44-7.93-8.03-10.44-3.58-2.53-8.07-3.77-13.41-3.77-8.03,0-14.26,2.81-18.66,8.45-4.4,5.62-6.6,12.74-6.6,21.31,0,5.68,1.1,10.74,3.3,15.19,2.2,4.45,5.2,7.94,9.01,10.44,3.79,2.53,8.12,3.77,12.93,3.77h.02c5.44,0,9.97-1.33,13.55-4.03,3.59-2.67,6.26-6.25,7.96-10.7,1.71-4.44,2.58-9.34,2.58-14.7,0-5.9-.89-11.07-2.65-15.52Zm0,0c-1.78-4.45-4.44-7.93-8.03-10.44-3.58-2.53-8.07-3.77-13.41-3.77-8.03,0-14.26,2.81-18.66,8.45-4.4,5.62-6.6,12.74-6.6,21.31,0,5.68,1.1,10.74,3.3,15.19,2.2,4.45,5.2,7.94,9.01,10.44,3.79,2.53,8.12,3.77,12.93,3.77h.02c5.44,0,9.97-1.33,13.55-4.03,3.59-2.67,6.26-6.25,7.96-10.7,1.71-4.44,2.58-9.34,2.58-14.7,0-5.9-.89-11.07-2.65-15.52Zm-157.71-3.86c-1.88-3.37-4.38-5.95-7.47-7.73-3.12-1.75-6.44-2.64-9.98-2.64s-6.85,.89-9.97,2.64c-3.11,1.78-5.62,4.31-7.56,7.64-1.92,3.32-2.9,7.44-2.9,12.38s.96,8.9,2.9,12.22c1.92,3.32,4.45,5.85,7.56,7.56,3.12,1.71,6.44,2.58,9.97,2.58s6.84-.87,9.88-2.58c3.05-1.71,5.55-4.24,7.47-7.56,1.92-3.32,2.9-7.4,2.9-12.22s-.93-8.92-2.8-12.29Zm-108.21,3.86c-1.78-4.45-4.45-7.93-8.03-10.44-3.58-2.53-8.07-3.77-13.41-3.77-8.03,0-14.26,2.81-18.66,8.45-4.4,5.62-6.6,12.74-6.6,21.31,0,5.69,1.1,10.74,3.3,15.19,2.2,4.45,5.2,7.94,9.01,10.44,3.78,2.52,8.1,3.76,12.92,3.77h.03c5.45,0,9.98-1.34,13.55-4.03,3.58-2.66,6.25-6.25,7.96-10.69,1.71-4.45,2.58-9.34,2.58-14.71,0-5.9-.89-11.07-2.65-15.52Zm0,0c-1.78-4.45-4.45-7.93-8.03-10.44-3.58-2.53-8.07-3.77-13.41-3.77-8.03,0-14.26,2.81-18.66,8.45-4.4,5.62-6.6,12.74-6.6,21.31,0,5.69,1.1,10.74,3.3,15.19,2.2,4.45,5.2,7.94,9.01,10.44,3.78,2.52,8.1,3.76,12.92,3.77h.03c5.45,0,9.98-1.34,13.55-4.03,3.58-2.66,6.25-6.25,7.96-10.69,1.71-4.45,2.58-9.34,2.58-14.71,0-5.9-.89-11.07-2.65-15.52Zm108.21-3.86c-1.88-3.37-4.38-5.95-7.47-7.73-3.12-1.75-6.44-2.64-9.98-2.64s-6.85,.89-9.97,2.64c-3.11,1.78-5.62,4.31-7.56,7.64-1.92,3.32-2.9,7.44-2.9,12.38s.96,8.9,2.9,12.22c1.92,3.32,4.45,5.85,7.56,7.56,3.12,1.71,6.44,2.58,9.97,2.58s6.84-.87,9.88-2.58c3.05-1.71,5.55-4.24,7.47-7.56,1.92-3.32,2.9-7.4,2.9-12.22s-.93-8.92-2.8-12.29Zm157.71,3.86c-1.78-4.45-4.44-7.93-8.03-10.44-3.58-2.53-8.07-3.77-13.41-3.77-8.03,0-14.26,2.81-18.66,8.45-4.4,5.62-6.6,12.74-6.6,21.31,0,5.68,1.1,10.74,3.3,15.19,2.2,4.45,5.2,7.94,9.01,10.44,3.79,2.53,8.12,3.77,12.93,3.77h.02c5.44,0,9.97-1.33,13.55-4.03,3.59-2.67,6.26-6.25,7.96-10.7,1.71-4.44,2.58-9.34,2.58-14.7,0-5.9-.89-11.07-2.65-15.52Zm0,0c-1.78-4.45-4.44-7.93-8.03-10.44-3.58-2.53-8.07-3.77-13.41-3.77-8.03,0-14.26,2.81-18.66,8.45-4.4,5.62-6.6,12.74-6.6,21.31,0,5.68,1.1,10.74,3.3,15.19,2.2,4.45,5.2,7.94,9.01,10.44,3.79,2.53,8.12,3.77,12.93,3.77h.02c5.44,0,9.97-1.33,13.55-4.03,3.59-2.67,6.26-6.25,7.96-10.7,1.71-4.44,2.58-9.34,2.58-14.7,0-5.9-.89-11.07-2.65-15.52Zm-157.71-3.86c-1.88-3.37-4.38-5.95-7.47-7.73-3.12-1.75-6.44-2.64-9.98-2.64s-6.85,.89-9.97,2.64c-3.11,1.78-5.62,4.31-7.56,7.64-1.92,3.32-2.9,7.44-2.9,12.38s.96,8.9,2.9,12.22c1.92,3.32,4.45,5.85,7.56,7.56,3.12,1.71,6.44,2.58,9.97,2.58s6.84-.87,9.88-2.58c3.05-1.71,5.55-4.24,7.47-7.56,1.92-3.32,2.9-7.4,2.9-12.22s-.93-8.92-2.8-12.29Zm-108.21,3.86c-1.78-4.45-4.45-7.93-8.03-10.44-3.58-2.53-8.07-3.77-13.41-3.77-8.03,0-14.26,2.81-18.66,8.45-4.4,5.62-6.6,12.74-6.6,21.31,0,5.69,1.1,10.74,3.3,15.19,2.2,4.45,5.2,7.94,9.01,10.44,3.78,2.52,8.1,3.76,12.92,3.77h.03c5.45,0,9.98-1.34,13.55-4.03,3.58-2.66,6.25-6.25,7.96-10.69,1.71-4.45,2.58-9.34,2.58-14.71,0-5.9-.89-11.07-2.65-15.52Zm0,0c-1.78-4.45-4.45-7.93-8.03-10.44-3.58-2.53-8.07-3.77-13.41-3.77-8.03,0-14.26,2.81-18.66,8.45-4.4,5.62-6.6,12.74-6.6,21.31,0,5.69,1.1,10.74,3.3,15.19,2.2,4.45,5.2,7.94,9.01,10.44,3.78,2.52,8.1,3.76,12.92,3.77h.03c5.45,0,9.98-1.34,13.55-4.03,3.58-2.66,6.25-6.25,7.96-10.69,1.71-4.45,2.58-9.34,2.58-14.71,0-5.9-.89-11.07-2.65-15.52Zm108.21-3.86c-1.88-3.37-4.38-5.95-7.47-7.73-3.12-1.75-6.44-2.64-9.98-2.64s-6.85,.89-9.97,2.64c-3.11,1.78-5.62,4.31-7.56,7.64-1.92,3.32-2.9,7.44-2.9,12.38s.96,8.9,2.9,12.22c1.92,3.32,4.45,5.85,7.56,7.56,3.12,1.71,6.44,2.58,9.97,2.58s6.84-.87,9.88-2.58c3.05-1.71,5.55-4.24,7.47-7.56,1.92-3.32,2.9-7.4,2.9-12.22s-.93-8.92-2.8-12.29Zm0,0c-1.88-3.37-4.38-5.95-7.47-7.73-3.12-1.75-6.44-2.64-9.98-2.64s-6.85,.89-9.97,2.64c-3.11,1.78-5.62,4.31-7.56,7.64-1.92,3.32-2.9,7.44-2.9,12.38s.96,8.9,2.9,12.22c1.92,3.32,4.45,5.85,7.56,7.56,3.12,1.71,6.44,2.58,9.97,2.58s6.84-.87,9.88-2.58c3.05-1.71,5.55-4.24,7.47-7.56,1.92-3.32,2.9-7.4,2.9-12.22s-.93-8.92-2.8-12.29Zm-108.21,3.86c-1.78-4.45-4.45-7.93-8.03-10.44-3.58-2.53-8.07-3.77-13.41-3.77-8.03,0-14.26,2.81-18.66,8.45-4.4,5.62-6.6,12.74-6.6,21.31,0,5.69,1.1,10.74,3.3,15.19,2.2,4.45,5.2,7.94,9.01,10.44,3.78,2.52,8.1,3.76,12.92,3.77h.03c5.45,0,9.98-1.34,13.55-4.03,3.58-2.66,6.25-6.25,7.96-10.69,1.71-4.45,2.58-9.34,2.58-14.71,0-5.9-.89-11.07-2.65-15.52Zm0,0c-1.78-4.45-4.45-7.93-8.03-10.44-3.58-2.53-8.07-3.77-13.41-3.77-8.03,0-14.26,2.81-18.66,8.45-4.4,5.62-6.6,12.74-6.6,21.31,0,5.69,1.1,10.74,3.3,15.19,2.2,4.45,5.2,7.94,9.01,10.44,3.78,2.52,8.1,3.76,12.92,3.77h.03c5.45,0,9.98-1.34,13.55-4.03,3.58-2.66,6.25-6.25,7.96-10.69,1.71-4.45,2.58-9.34,2.58-14.71,0-5.9-.89-11.07-2.65-15.52Zm108.21-3.86c-1.88-3.37-4.38-5.95-7.47-7.73-3.12-1.75-6.44-2.64-9.98-2.64s-6.85,.89-9.97,2.64c-3.11,1.78-5.62,4.31-7.56,7.64-1.92,3.32-2.9,7.44-2.9,12.38s.96,8.9,2.9,12.22c1.92,3.32,4.45,5.85,7.56,7.56,3.12,1.71,6.44,2.58,9.97,2.58s6.84-.87,9.88-2.58c3.05-1.71,5.55-4.24,7.47-7.56,1.92-3.32,2.9-7.4,2.9-12.22s-.93-8.92-2.8-12.29Zm0,0c-1.88-3.37-4.38-5.95-7.47-7.73-3.12-1.75-6.44-2.64-9.98-2.64s-6.85,.89-9.97,2.64c-3.11,1.78-5.62,4.31-7.56,7.64-1.92,3.32-2.9,7.44-2.9,12.38s.96,8.9,2.9,12.22c1.92,3.32,4.45,5.85,7.56,7.56,3.12,1.71,6.44,2.58,9.97,2.58s6.84-.87,9.88-2.58c3.05-1.71,5.55-4.24,7.47-7.56,1.92-3.32,2.9-7.4,2.9-12.22s-.93-8.92-2.8-12.29Zm-108.21,3.86c-1.78-4.45-4.45-7.93-8.03-10.44-3.58-2.53-8.07-3.77-13.41-3.77-8.03,0-14.26,2.81-18.66,8.45-4.4,5.62-6.6,12.74-6.6,21.31,0,5.69,1.1,10.74,3.3,15.19,2.2,4.45,5.2,7.94,9.01,10.44,3.78,2.52,8.1,3.76,12.92,3.77h.03c5.45,0,9.98-1.34,13.55-4.03,3.58-2.66,6.25-6.25,7.96-10.69,1.71-4.45,2.58-9.34,2.58-14.71,0-5.9-.89-11.07-2.65-15.52Zm0,0c-1.78-4.45-4.45-7.93-8.03-10.44-3.58-2.53-8.07-3.77-13.41-3.77-8.03,0-14.26,2.81-18.66,8.45-4.4,5.62-6.6,12.74-6.6,21.31,0,5.69,1.1,10.74,3.3,15.19,2.2,4.45,5.2,7.94,9.01,10.44,3.78,2.52,8.1,3.76,12.92,3.77h.03c5.45,0,9.98-1.34,13.55-4.03,3.58-2.66,6.25-6.25,7.96-10.69,1.71-4.45,2.58-9.34,2.58-14.71,0-5.9-.89-11.07-2.65-15.52Zm108.21-3.86c-1.88-3.37-4.38-5.95-7.47-7.73-3.12-1.75-6.44-2.64-9.98-2.64s-6.85,.89-9.97,2.64c-3.11,1.78-5.62,4.31-7.56,7.64-1.92,3.32-2.9,7.44-2.9,12.38s.96,8.9,2.9,12.22c1.92,3.32,4.45,5.85,7.56,7.56,3.12,1.71,6.44,2.58,9.97,2.58s6.84-.87,9.88-2.58c3.05-1.71,5.55-4.24,7.47-7.56,1.92-3.32,2.9-7.4,2.9-12.22s-.93-8.92-2.8-12.29Zm0,0c-1.88-3.37-4.38-5.95-7.47-7.73-3.12-1.75-6.44-2.64-9.98-2.64s-6.85,.89-9.97,2.64c-3.11,1.78-5.62,4.31-7.56,7.64-1.92,3.32-2.9,7.44-2.9,12.38s.96,8.9,2.9,12.22c1.92,3.32,4.45,5.85,7.56,7.56,3.12,1.71,6.44,2.58,9.97,2.58s6.84-.87,9.88-2.58c3.05-1.71,5.55-4.24,7.47-7.56,1.92-3.32,2.9-7.4,2.9-12.22s-.93-8.92-2.8-12.29Zm-108.21,3.86c-1.78-4.45-4.45-7.93-8.03-10.44-3.58-2.53-8.07-3.77-13.41-3.77-8.03,0-14.26,2.81-18.66,8.45-4.4,5.62-6.6,12.74-6.6,21.31,0,5.69,1.1,10.74,3.3,15.19,2.2,4.45,5.2,7.94,9.01,10.44,3.78,2.52,8.1,3.76,12.92,3.77h.03c5.45,0,9.98-1.34,13.55-4.03,3.58-2.66,6.25-6.25,7.96-10.69,1.71-4.45,2.58-9.34,2.58-14.71,0-5.9-.89-11.07-2.65-15.52Zm0,0c-1.78-4.45-4.45-7.93-8.03-10.44-3.58-2.53-8.07-3.77-13.41-3.77-8.03,0-14.26,2.81-18.66,8.45-4.4,5.62-6.6,12.74-6.6,21.31,0,5.69,1.1,10.74,3.3,15.19,2.2,4.45,5.2,7.94,9.01,10.44,3.78,2.52,8.1,3.76,12.92,3.77h.03c5.45,0,9.98-1.34,13.55-4.03,3.58-2.66,6.25-6.25,7.96-10.69,1.71-4.45,2.58-9.34,2.58-14.71,0-5.9-.89-11.07-2.65-15.52Zm108.21-3.86c-1.88-3.37-4.38-5.95-7.47-7.73-3.12-1.75-6.44-2.64-9.98-2.64s-6.85,.89-9.97,2.64c-3.11,1.78-5.62,4.31-7.56,7.64-1.92,3.32-2.9,7.44-2.9,12.38s.96,8.9,2.9,12.22c1.92,3.32,4.45,5.85,7.56,7.56,3.12,1.71,6.44,2.58,9.97,2.58s6.84-.87,9.88-2.58c3.05-1.71,5.55-4.24,7.47-7.56,1.92-3.32,2.9-7.4,2.9-12.22s-.93-8.92-2.8-12.29Zm0,0c-1.88-3.37-4.38-5.95-7.47-7.73-3.12-1.75-6.44-2.64-9.98-2.64s-6.85,.89-9.97,2.64c-3.11,1.78-5.62,4.31-7.56,7.64-1.92,3.32-2.9,7.44-2.9,12.38s.96,8.9,2.9,12.22c1.92,3.32,4.45,5.85,7.56,7.56,3.12,1.71,6.44,2.58,9.97,2.58s6.84-.87,9.88-2.58c3.05-1.71,5.55-4.24,7.47-7.56,1.92-3.32,2.9-7.4,2.9-12.22s-.93-8.92-2.8-12.29Zm-108.21,3.86c-1.78-4.45-4.45-7.93-8.03-10.44-3.58-2.53-8.07-3.77-13.41-3.77-8.03,0-14.26,2.81-18.66,8.45-4.4,5.62-6.6,12.74-6.6,21.31,0,5.69,1.1,10.74,3.3,15.19,2.2,4.45,5.2,7.94,9.01,10.44,3.78,2.52,8.1,3.76,12.92,3.77h.03c5.45,0,9.98-1.34,13.55-4.03,3.58-2.66,6.25-6.25,7.96-10.69,1.71-4.45,2.58-9.34,2.58-14.71,0-5.9-.89-11.07-2.65-15.52Zm0,0c-1.78-4.45-4.45-7.93-8.03-10.44-3.58-2.53-8.07-3.77-13.41-3.77-8.03,0-14.26,2.81-18.66,8.45-4.4,5.62-6.6,12.74-6.6,21.31,0,5.69,1.1,10.74,3.3,15.19,2.2,4.45,5.2,7.94,9.01,10.44,3.78,2.52,8.1,3.76,12.92,3.77h.03c5.45,0,9.98-1.34,13.55-4.03,3.58-2.66,6.25-6.25,7.96-10.69,1.71-4.45,2.58-9.34,2.58-14.71,0-5.9-.89-11.07-2.65-15.52Zm108.21-3.86c-1.88-3.37-4.38-5.95-7.47-7.73-3.12-1.75-6.44-2.64-9.98-2.64s-6.85,.89-9.97,2.64c-3.11,1.78-5.62,4.31-7.56,7.64-1.92,3.32-2.9,7.44-2.9,12.38s.96,8.9,2.9,12.22c1.92,3.32,4.45,5.85,7.56,7.56,3.12,1.71,6.44,2.58,9.97,2.58s6.84-.87,9.88-2.58c3.05-1.71,5.55-4.24,7.47-7.56,1.92-3.32,2.9-7.4,2.9-12.22s-.93-8.92-2.8-12.29Zm0,0c-1.88-3.37-4.38-5.95-7.47-7.73-3.12-1.75-6.44-2.64-9.98-2.64s-6.85,.89-9.97,2.64c-3.11,1.78-5.62,4.31-7.56,7.64-1.92,3.32-2.9,7.44-2.9,12.38s.96,8.9,2.9,12.22c1.92,3.32,4.45,5.85,7.56,7.56,3.12,1.71,6.44,2.58,9.97,2.58s6.84-.87,9.88-2.58c3.05-1.71,5.55-4.24,7.47-7.56,1.92-3.32,2.9-7.4,2.9-12.22s-.93-8.92-2.8-12.29Zm-108.21,3.86c-1.78-4.45-4.45-7.93-8.03-10.44-3.58-2.53-8.07-3.77-13.41-3.77-8.03,0-14.26,2.81-18.66,8.45-4.4,5.62-6.6,12.74-6.6,21.31,0,5.69,1.1,10.74,3.3,15.19,2.2,4.45,5.2,7.94,9.01,10.44,3.78,2.52,8.1,3.76,12.92,3.77h.03c5.45,0,9.98-1.34,13.55-4.03,3.58-2.66,6.25-6.25,7.96-10.69,1.71-4.45,2.58-9.34,2.58-14.71,0-5.9-.89-11.07-2.65-15.52Zm0,0c-1.78-4.45-4.45-7.93-8.03-10.44-3.58-2.53-8.07-3.77-13.41-3.77-8.03,0-14.26,2.81-18.66,8.45-4.4,5.62-6.6,12.74-6.6,21.31,0,5.69,1.1,10.74,3.3,15.19,2.2,4.45,5.2,7.94,9.01,10.44,3.78,2.52,8.1,3.76,12.92,3.77h.03c5.45,0,9.98-1.34,13.55-4.03,3.58-2.66,6.25-6.25,7.96-10.69,1.71-4.45,2.58-9.34,2.58-14.71,0-5.9-.89-11.07-2.65-15.52Zm0,0c-1.78-4.45-4.45-7.93-8.03-10.44-3.58-2.53-8.07-3.77-13.41-3.77-8.03,0-14.26,2.81-18.66,8.45-4.4,5.62-6.6,12.74-6.6,21.31,0,5.69,1.1,10.74,3.3,15.19,2.2,4.45,5.2,7.94,9.01,10.44,3.78,2.52,8.1,3.76,12.92,3.77h.03c5.45,0,9.98-1.34,13.55-4.03,3.58-2.66,6.25-6.25,7.96-10.69,1.71-4.45,2.58-9.34,2.58-14.71,0-5.9-.89-11.07-2.65-15.52Z"/>
    <path class="cls-3" d="M693.5,606.17v10.32c0,2.37-1.08,4.3-2.42,4.27-9.46-.11-43.57-2.39-49.75-28.81h-.02c-.33-1.41,.61-2.75,1.34-1.88,3.85,4.56,13.24,12.79,30.19,11.75l18.24,.07c1.34,0,2.42,1.93,2.42,4.28Z"/>
    <path class="cls-3" d="M805.68,591.95h-.02c-6.17,26.42-40.28,28.7-49.75,28.81-1.33,.03-2.41-1.9-2.41-4.27v-10.32c0-2.35,1.08-4.28,2.41-4.28l18.25-.07c16.95,1.04,26.34-7.19,30.19-11.75,.72-.87,1.66,.47,1.33,1.88Z"/>
  </g>
</svg>