<svg xmlns="http://www.w3.org/2000/svg" x="0px" y="0px" width="100" height="100" viewBox="0,0,256,256">
<g fill="#ffffff" fill-rule="nonzero" stroke="none" stroke-width="1" stroke-linecap="butt" stroke-linejoin="miter" stroke-miterlimit="10" stroke-dasharray="" stroke-dashoffset="0" font-family="none" font-weight="none" font-size="none" text-anchor="none" style="mix-blend-mode: normal"><g transform="scale(4,4)"><path d="M20.61523,10l3.02539,9.94336v6.52344h2.53906v-6.83398l2.95898,-9.63086h-2.58398l-1.57422,6.58398h-0.16016l-1.64648,-6.58594zM32.38672,14.01367c-1.024,0 -1.84022,0.28089 -2.44922,0.83789c-0.609,0.554 -0.91406,1.30509 -0.91406,2.24609h0.00195v6.29883c0,1.032 0.29472,1.85194 0.88672,2.46094c0.598,0.611 1.383,0.91992 2.375,0.91992c1.026,0 1.82702,-0.29672 2.41602,-0.88672c0.583,-0.594 0.87695,-1.40922 0.87695,-2.44922v-6.27734c0,-0.924 -0.30048,-1.68258 -0.89648,-2.26758c-0.594,-0.591 -1.35787,-0.88281 -2.29687,-0.88281zM37.49805,14.32031v10.1543c0,0.728 0.13048,1.26595 0.39648,1.62695c0.266,0.361 0.66064,0.54102 1.18164,0.54102c0.421,0 0.85964,-0.13367 1.30664,-0.38867c0.453,-0.256 0.88674,-0.63391 1.30273,-1.12891v1.3418h2.25781v-12.14648h-2.25586v9.22266c-0.211,0.262 -0.44422,0.48334 -0.69922,0.65234c-0.251,0.171 -0.46191,0.25391 -0.62891,0.25391c-0.209,0 -0.36698,-0.06636 -0.45898,-0.19336c-0.097,-0.129 -0.14453,-0.33714 -0.14453,-0.61914v-9.31641zM32.2832,16.11523c0.298,0 0.54066,0.08705 0.72266,0.24805c0.183,0.163 0.27539,0.38058 0.27539,0.64258v6.61523c0,0.326 -0.08953,0.58558 -0.26953,0.76758c-0.184,0.187 -0.42247,0.28125 -0.73047,0.28125c-0.297,0 -0.52755,-0.09344 -0.68555,-0.27344c-0.167,-0.184 -0.24805,-0.44534 -0.24805,-0.77734c0,0 -0.00005,-6.61328 0.00195,-6.61328c0,-0.262 0.08581,-0.47958 0.25781,-0.64258c0.173,-0.164 0.39878,-0.24805 0.67578,-0.24805zM31.99805,29.31445c-4.354,-0.005 -8.62387,0.07009 -12.79687,0.24609c-2.917,0 -5.28906,2.34442 -5.28906,5.23242c-0.173,2.284 -0.25109,4.57328 -0.24609,6.86328c-0.007,2.286 0.07205,4.57719 0.24805,6.86719c0,2.893 2.36811,5.23633 5.28711,5.23633c4.173,0.172 8.44288,0.24528 12.79688,0.23828c4.358,0.009 8.62588,-0.06628 12.79688,-0.23828c2.919,0 5.29102,-2.34333 5.29102,-5.23633c0.175,-2.29 0.25505,-4.58119 0.24805,-6.86719c0.009,-2.29 -0.07205,-4.57928 -0.24805,-6.86328c0,-2.89 -2.37002,-5.23342 -5.29102,-5.23242c-4.171,-0.174 -8.43888,-0.25009 -12.79687,-0.24609zM16.50977,33.06641h7.6875c0.139,0 0.25,0.11295 0.25,0.25195v2.34961c0,0.139 -0.111,0.25 -0.25,0.25h-2.3418v13.61523c0,0.139 -0.11195,0.25 -0.25195,0.25h-2.50391c-0.139,0 -0.25,-0.111 -0.25,-0.25v-13.61523h-2.33984c-0.139,0 -0.25,-0.111 -0.25,-0.25v-2.34961c0,-0.139 0.111,-0.25195 0.25,-0.25195zM32.68555,33.06641h2.24609c0.139,0 0.25195,0.111 0.25195,0.25v4.58789c0.185,-0.169 0.37812,-0.30783 0.57813,-0.42383c0.379,-0.211 0.76339,-0.31836 1.15039,-0.31836c0.785,0 1.39641,0.29405 1.81641,0.87305c0.401,0.555 0.60156,1.35777 0.60156,2.38477l0.00195,6.63672c0,0.908 -0.19217,1.61642 -0.57617,2.10742c-0.398,0.514 -0.97198,0.77344 -1.70898,0.77344c-0.468,0 -0.8993,-0.09611 -1.2793,-0.28711c-0.204,-0.104 -0.39898,-0.2393 -0.58398,-0.4043v0.28906c0,0.139 -0.11295,0.25 -0.25195,0.25h-2.24609c-0.139,0 -0.25,-0.111 -0.25,-0.25v-16.21875c0,-0.139 0.111,-0.25 0.25,-0.25zM44.13867,37.01367c1.087,0 1.93925,0.33228 2.53125,0.98828c0.589,0.652 0.88672,1.5853 0.88672,2.7793v3.05469c0,0.139 -0.11291,0.25095 -0.25391,0.25195h-4v2.00195c0,0.731 0.09869,1.03983 0.17969,1.17383c0.066,0.108 0.18716,0.24609 0.53516,0.24609c0.282,0 0.47327,-0.06717 0.57227,-0.20117c0.048,-0.069 0.17188,-0.34575 0.17188,-1.21875v-0.83398c0,-0.139 0.111,-0.25195 0.25,-0.25195h2.28906c0.139,0 0.25,0.11295 0.25,0.25195v0.89844c0,1.289 -0.30634,2.27741 -0.90234,2.94141c-0.6,0.671 -1.50255,1.01367 -2.68555,1.01367c-1.067,0 -1.92302,-0.36317 -2.54102,-1.07617c-0.61,-0.702 -0.91992,-1.67091 -0.91992,-2.87891v-5.37109c0,-1.1 0.34067,-2.01094 1.01367,-2.71094c0.675,-0.702 1.55805,-1.05859 2.62305,-1.05859zM24.16992,37.31836h2.22656c0.139,0 0.25,0.111 0.25,0.25v9.16992c0,0.3 0.05484,0.42275 0.08984,0.46875c0.014,0.02 0.061,0.08398 0.25,0.08398c0.064,0 0.21061,-0.02703 0.47461,-0.20703c0.214,-0.144 0.40612,-0.31844 0.57812,-0.52344v-8.99219c0,-0.139 0.11295,-0.25 0.25195,-0.25h2.22656c0.139,0 0.25,0.111 0.25,0.25v11.96289h0.00391v0.00195c0,0.139 -0.111,0.25095 -0.25,0.25195h-2.22656c-0.139,0 -0.25,-0.11295 -0.25,-0.25195v-0.67969c-0.297,0.288 -0.59434,0.51741 -0.90234,0.69141c-0.484,0.278 -0.94897,0.41406 -1.41797,0.41406c-0.596,0 -1.05528,-0.21467 -1.36328,-0.63867c-0.292,-0.402 -0.44141,-0.99095 -0.44141,-1.75195v-10c0,-0.139 0.111,-0.25 0.25,-0.25zM35.76563,39.57422c-0.08436,0.01439 -0.17388,0.04409 -0.26562,0.08984c-0.105,0.051 -0.20741,0.12928 -0.31641,0.23828v7.25195c0.134,0.136 0.26572,0.23683 0.38672,0.29883c0.136,0.068 0.27383,0.10156 0.42383,0.10156c0.284,0 0.37144,-0.11334 0.39844,-0.15234c0.07,-0.088 0.14648,-0.26997 0.14648,-0.66797v-6.17773c0,-0.343 -0.06255,-0.60853 -0.18555,-0.76953c-0.123,-0.1665 -0.33481,-0.25606 -0.58789,-0.21289zM44.03906,39.61523c-0.268,0 -0.44955,0.07366 -0.56055,0.22266c-0.079,0.11 -0.17383,0.36873 -0.17383,0.92773v0.95703h1.45703v-0.95703c0,-0.55 -0.1035,-0.81059 -0.1875,-0.93359c-0.102,-0.146 -0.27816,-0.2168 -0.53516,-0.2168z"></path></g></g>
</svg>