<svg width="36" height="36" viewBox="0 0 36 36" fill="none" xmlns="http://www.w3.org/2000/svg">
    <path d="M28.1206 25.6844L35.5 33.062L33.062 35.5L25.6844 28.1206C22.9392 30.3212 19.5248 31.5181 16.0065 31.5131C7.44693 31.5131 0.5 24.5662 0.5 16.0065C0.5 7.44693 7.44693 0.5 16.0065 0.5C24.5662 0.5 31.5131 7.44693 31.5131 16.0065C31.5181 19.5248 30.3212 22.9392 28.1206 25.6844ZM24.6644 24.4059C26.8505 22.157 28.0716 19.143 28.0672 16.0065C28.0672 9.3439 22.6692 3.9459 16.0065 3.9459C9.3439 3.9459 3.9459 9.3439 3.9459 16.0065C3.9459 22.6692 9.3439 28.0672 16.0065 28.0672C19.143 28.0716 22.157 26.8505 24.4059 24.6644L24.6644 24.4059Z" fill="currentColor"/>
</svg>
