<svg width="40" height="24" viewBox="0 0 40 24" fill="none" xmlns="http://www.w3.org/2000/svg">
    <path d="M0 0L0 9.33333H1.42857C3.12857 9.33333 4.28571 10.4133 4.28571 12C4.28571 13.5867 3.12857 14.6667 1.42857 14.6667H0L0 24L40 24V14.6667H38.5714C36.8714 14.6667 35.7143 13.5867 35.7143 12C35.7143 10.4133 36.8714 9.33333 38.5714 9.33333H40V0L0 0ZM2.85714 2.66667L37.1429 2.66667V6.91733C34.6929 7.51733 32.8571 9.524 32.8571 12C32.8571 14.476 34.6929 16.4827 37.1429 17.084V21.3333L2.85714 21.3333L2.85714 17.0827C5.30714 16.4827 7.14286 14.476 7.14286 12C7.14286 9.524 5.30714 7.51733 2.85714 6.916L2.85714 2.66667Z" fill="currentColor"/>
</svg>
